<?xml version="1.0" encoding="UTF-8"?>
<svg id="Layer_1" data-name="Layer 1" xmlns="http://www.w3.org/2000/svg" viewBox="0 0 8073.73 1280">
  <defs>
    <style>
      .cls-1 {
        fill: #03bcea;
      }

      .cls-2 {
        fill: #1f3344;
      }

      .cls-3 {
        fill: #00beec;
      }

      .cls-4 {
        fill: #183445;
      }
    </style>
  </defs>
  <g>
    <g>
      <path class="cls-4" d="M7589.07,653.66l484.66-484.66v-102.5h-1126.72l587.16,587.16c15.16,15.16,39.73,15.16,54.89,0Z"/>
      <path class="cls-4" d="M7349.36,650.89l-484.84,486.04c-15.18,15.22-15.1,39.89.19,55.01,29.42,29.1,58.85,58.2,88.27,87.3,359.51-.37,719.02-.73,1078.53-1.1-209.08-209.08-418.17-418.17-627.25-627.25-15.16-15.16-39.73-15.16-54.89,0Z"/>
      <path class="cls-3" d="M7275.17,532.03l-423.3-423.3v901.5l423.3-423.3c15.16-15.16,15.16-39.73,0-54.89Z"/>
      <path class="cls-3" d="M7656.33,775.81l417.41,417.41V303.51l-417.41,417.41c-15.16,15.16-15.16,39.73,0,54.89Z"/>
    </g>
    <g>
      <g>
        <path class="cls-3" d="M7554.61,519.87l453.37-453.37h-965.53l453.37,453.37c16.23,16.23,42.56,16.23,58.79,0Z"/>
        <circle class="cls-3" cx="7818.75" cy="326.03" r="31.42"/>
      </g>
      <path class="cls-3" d="M7445.07,739.07l-462.67,462.67c-17.51,17.51-45.91,17.51-63.42,0h0c-17.51-17.51-17.51-45.91,0-63.42l462.67-462.67c1.39,7.05,6.45,27.89,25.41,44.73,14.79,13.13,30.62,17.26,38.01,18.69Z"/>
    </g>
  </g>
  <g>
    <g>
      <path class="cls-1" d="M1570.51,1179.48l.63-103.35c.02-1.93,1.47-3.36,3.15-3.36l35.42.21c1.69.02,3.12,1.47,3.11,3.39l-.63,103.11c-.16,25.79,9.89,38.37,31.09,38.5,21.2.13,31.15-12.34,31.31-38.12l.63-103.11c0-1.93,1.46-3.36,3.15-3.36l34.45.21c1.68,0,3.12,1.46,3.11,3.39l-.63,103.35c-.28,45.54-23.33,71.9-72.72,71.6-49.39-.3-72.36-26.94-72.08-72.48Z"/>
      <path class="cls-1" d="M1751.03,1249.97c-1.69,0-3.36-1.46-3.35-3.39l1.04-169.37c0-1.93,1.7-3.36,3.39-3.36l37.58.23c1.21,0,2.17.74,2.65,1.47l67.55,103.52c1.43,2.18,4.57,1.23,4.58-1.42l.61-99.74c.02-1.93,1.7-3.36,3.64-3.35l32.76.2c1.93,0,3.61,1.47,3.59,3.39l-1.04,169.37c0,1.93-1.7,3.36-3.63,3.35l-34.7-.21c-1.2,0-2.16-.49-2.88-1.46l-69.96-103.79c-1.43-2.18-4.57-1.23-4.58,1.18l-.62,100.23c0,1.93-1.7,3.36-3.63,3.35l-33.01-.21Z"/>
      <path class="cls-1" d="M1944.26,1251.15c-1.68,0-3.36-1.47-3.35-3.39l1.04-169.37c0-1.93,1.7-3.36,3.39-3.35l35.18.21c1.93.02,3.36,1.47,3.36,3.39l-1.04,169.37c-.02,1.93-1.47,3.36-3.39,3.35l-35.18-.21Z"/>
      <path class="cls-1" d="M2064.48,1252.6c-1.2,0-2.17-.97-2.64-2.18l-58.95-169.97c-.95-2.66.99-5.05,3.65-5.04l34.93.21c1.2,0,2.4.98,2.88,2.18l39.5,120.46,42.41-119.96c.49-1.2,1.46-2.16,2.66-2.15l31.8.19c2.65.02,4.57,2.44,3.58,5.08l-61.02,169.24c-.25,1.2-1.45,2.16-2.66,2.15l-36.14-.22Z"/>
      <path class="cls-1" d="M2184.71,1252.61c-1.93,0-3.36-1.46-3.36-3.39l1.04-169.37c.02-1.93,1.47-3.36,3.39-3.36l117.09.72c1.69,0,3.13,1.47,3.11,3.39l-.18,28.43c0,1.69-1.46,3.11-3.15,3.11l-75.41-.46c-1.69-.02-3.14,1.42-3.15,3.11l-.18,29.87c0,1.69,1.42,3.14,3.11,3.16l59.26.36c1.69.02,3.13,1.47,3.11,3.39l-.16,26.26c0,1.93-1.47,3.36-3.15,3.35l-59.27-.36c-1.68-.02-3.14,1.42-3.15,3.11l-.19,31.81c0,1.69,1.42,3.14,3.11,3.15l78.78.48c1.69,0,3.13,1.7,3.11,3.39l-.17,27.22c0,1.93-1.46,3.36-3.15,3.36l-120.46-.74Z"/>
      <path class="cls-1" d="M2339.39,1253.55c-1.69,0-3.36-1.46-3.36-3.39l1.04-169.37c.02-1.93,1.7-3.36,3.39-3.36l62.88.39c44.09.27,71.46,16.58,71.21,57.77-.15,25.79-11.1,41.86-31.87,49.93-2.18.95-3.15,2.87-1.96,4.8l31.93,58.02c1.42,2.89-.52,6.01-3.9,6l-35.66-.22c-1.2,0-2.16-.74-2.63-1.7l-32.41-58.5c-.47-.97-1.44-1.45-2.4-1.46-1.93-.02-3.85.21-5.78.2l-9.16-.05c-1.69,0-3.14,1.42-3.15,3.11l-.33,54.69c-.02,1.93-1.71,3.36-3.39,3.36l-34.45-.21ZM2401.4,1160.44c21.68.14,32.33-7.27,32.44-24.13.1-16.87-10.46-24.16-32.14-24.29l-20.48-.12c-1.69,0-3.14,1.42-3.15,3.11l-.25,42.16c-.02,1.68,1.42,3.14,3.11,3.15l20.47.12Z"/>
      <path class="cls-1" d="M2500.87,1207.07c.02-1.69,1.7-2.88,3.14-1.67,16.8,10.22,43.97,19.54,59.39,19.64,25.54.16,36.9-5.31,37.22-18.08.06-10.6-9.77-17.41-34.55-23.34-30.07-7.89-65.92-15.82-65.44-54.36.21-34.45,34.05-53.75,73.32-53.52,16.87.11,37.8,4.08,52.22,10.43.72.24.96.73.96,1.22l-.21,33.72c0,1.45-1.46,2.15-2.66,1.43-15.14-7.57-35.1-12.75-50.76-12.84-15.9-.1-31.84,5.83-31.9,16.19-.33,13.73,14.1,18.4,33.83,23.34,31.28,7.42,66.38,19.92,66.15,57.5-.42,28.43-28.27,51.87-80.07,51.56-19.03-.11-43.82-6.05-60.14-14.58-.48-.49-.72-.73-.72-1.21l.21-35.41Z"/>
      <path class="cls-1" d="M2670.68,1255.57c-1.69,0-3.36-1.46-3.36-3.39l1.04-169.37c.02-1.93,1.7-3.36,3.39-3.36l35.17.21c1.93.02,3.36,1.47,3.36,3.39l-1.04,169.37c-.02,1.93-1.47,3.36-3.39,3.35l-35.17-.21Z"/>
      <path class="cls-1" d="M2788.49,1256.29c-1.69-.02-3.13-1.47-3.11-3.39l.82-134.68c0-1.69-1.43-3.14-3.11-3.15l-45.78-.28c-1.69,0-3.36-1.46-3.36-3.15l.18-28.43c.02-1.93,1.7-3.36,3.39-3.35l139.5.85c1.69,0,3.13,1.46,3.11,3.39l-.18,28.43c0,1.69-1.46,3.12-3.15,3.11l-45.78-.28c-1.68,0-3.14,1.42-3.15,3.11l-.82,134.68c0,1.93-1.46,3.36-3.15,3.36l-35.41-.21Z"/>
      <path class="cls-1" d="M2950.88,1257.28c-1.93-.02-3.37-1.47-3.36-3.39l.43-69.39c0-1.45-.23-2.41-.94-3.87l-56.77-93.58c-1.91-2.66.04-6.26,3.41-6.24l34.45.21c.96,0,2.4.74,2.88,1.71l36.25,60.69c1.19,2.18,2.88,2.18,4.34.03l37.23-60.25c.49-.97,1.94-1.67,2.9-1.67l33.97.21c3.37.02,5.27,3.65,3.33,6.28l-58.15,92.88c-.74,1.69-.98,2.65-.99,4.09l-.43,69.15c0,1.93-1.46,3.36-3.39,3.36l-35.17-.21Z"/>
      <path class="cls-1" d="M3102.49,1169.53c.3-50.35,41.27-91.05,91.86-90.74,50.6.31,91.31,41.27,90.99,91.86-.3,50.6-41.51,91.31-92.11,90.99-50.6-.3-91.06-41.52-90.75-92.11ZM3244.38,1171.36c.18-28.19-22.34-50.97-50.52-51.14-28.43-.17-51.21,22.33-51.39,50.52s22.34,50.98,50.76,51.15c28.19.18,50.98-22.34,51.14-50.53Z"/>
      <path class="cls-1" d="M3312.52,1259.48c-1.69,0-3.36-1.47-3.36-3.39l1.04-169.37c.02-1.93,1.7-3.36,3.39-3.35l112.75.68c1.69,0,3.13,1.47,3.11,3.39l-.18,28.43c0,1.69-1.46,3.11-3.15,3.11l-71.07-.43c-1.69,0-3.14,1.43-3.15,3.12l-.21,34.45c0,1.68,1.42,3.14,3.11,3.14l50.12.3c1.68.02,3.12,1.47,3.11,3.4l-.16,26.26c0,1.93-1.46,3.36-3.15,3.35l-50.11-.3c-1.69,0-3.14,1.43-3.15,3.12l-.37,60.95c-.02,1.93-1.47,3.36-3.39,3.35l-35.18-.21Z"/>
      <path class="cls-1" d="M3500.21,1260.62c-1.69,0-3.37-1.47-3.36-3.39l1.04-169.37c0-1.93,1.7-3.36,3.39-3.35l35.17.21c1.93.02,3.37,1.47,3.36,3.39l-.37,61.43c0,1.68,1.42,3.14,3.11,3.14l59.99.37c1.69.02,3.14-1.42,3.15-3.11l.37-61.43c.02-1.93,1.47-3.36,3.39-3.35l35.18.21c1.93,0,3.36,1.47,3.36,3.39l-1.04,169.37c-.02,1.93-1.47,3.36-3.39,3.35l-35.18-.21c-1.93-.02-3.36-1.47-3.36-3.39l.41-66.74c0-1.69-1.42-3.14-3.11-3.16l-59.99-.37c-1.69,0-3.14,1.43-3.15,3.12l-.41,66.74c0,1.93-1.46,3.36-3.39,3.35l-35.17-.21Z"/>
      <path class="cls-1" d="M3671.76,1261.66c-2.65-.02-4.32-2.44-3.34-5.08l62.71-169.96c.49-.96,1.7-1.92,2.9-1.91l35.18.21c1.21,0,2.4.98,2.88,1.95l60.63,170.7c.95,2.66-.75,5.06-3.4,5.04l-34.93-.21c-1.2,0-2.4-.98-2.88-2.19l-10.42-29.45c-.48-1.21-1.44-1.93-2.64-1.94l-59.03-.37c-1.2,0-2.17.72-2.66,1.91l-11.26,29.57c-.49.96-1.45,1.92-2.9,1.91l-30.84-.19ZM3764.68,1194.77c2.65.02,4.35-2.37,3.4-4.79l-18.24-51.43-19.1,51.21c-.74,2.41.94,4.83,3.34,4.84l30.6.18Z"/>
      <path class="cls-1" d="M3858.72,1262.81c-1.68,0-3.36-1.47-3.35-3.39l1.04-169.37c0-1.93,1.7-3.36,3.39-3.35l35.18.21c1.93.02,3.36,1.47,3.36,3.39l-1.04,169.37c-.02,1.93-1.47,3.36-3.39,3.35l-35.18-.21Z"/>
      <path class="cls-1" d="M3937.51,1263.28c-1.69,0-3.37-1.47-3.36-3.39l1.04-169.37c0-1.93,1.7-3.36,3.39-3.35l112.75.68c1.69.02,3.13,1.47,3.11,3.39l-.18,28.43c0,1.69-1.46,3.12-3.15,3.11l-71.07-.43c-1.69,0-3.14,1.43-3.15,3.12l-.21,34.45c-.02,1.68,1.42,3.14,3.11,3.14l50.11.3c1.68.02,3.12,1.47,3.11,3.4l-.16,26.26c0,1.93-1.46,3.36-3.15,3.35l-50.11-.3c-1.69,0-3.14,1.43-3.15,3.12l-.37,60.95c0,1.93-1.46,3.36-3.39,3.35l-35.17-.21Z"/>
      <path class="cls-1" d="M4051.71,1263.98c-2.65-.02-4.32-2.44-3.34-5.08l62.71-169.96c.49-.96,1.7-1.92,2.9-1.91l35.18.22c1.21,0,2.4.97,2.88,1.94l60.63,170.7c.95,2.66-.75,5.06-3.4,5.05l-34.93-.21c-1.2,0-2.4-.98-2.88-2.19l-10.42-29.45c-.48-1.21-1.44-1.93-2.64-1.94l-59.03-.37c-1.2,0-2.17.72-2.66,1.91l-11.26,29.57c-.49.96-1.45,1.92-2.9,1.91l-30.84-.19ZM4144.64,1197.08c2.65.02,4.35-2.37,3.4-4.79l-18.24-51.43-19.1,51.21c-.74,2.41.94,4.83,3.34,4.84l30.6.18Z"/>
      <path class="cls-1" d="M4462.22,1089.68c1.77,0,2.94,1.48,2.93,3.26l-1.04,170.31c0,2.06-1.19,3.23-2.96,3.23l-40.67-.24c-1.77-.02-2.64-1.2-2.63-3.27l.78-127.3-120.81-.73c-1.77-.02-3.23-1.2-3.22-2.98l.24-40.06c0-1.77,1.49-3.23,3.26-3.22l164.13,1ZM4298.19,1265.48c-1.77-.02-2.95-1.2-2.93-3.27l.48-79.27c0-.59.3-1.17.6-1.47l18.08-17.87c.6-.88,1.77-1.16,2.95-1.16l22.7.14c1.77,0,2.94,1.19,2.92,2.97l-.59,96.95c-.02,2.06-1.19,3.23-2.97,3.23l-41.25-.25Z"/>
      <path class="cls-1" d="M4505.63,1266.75c-1.77-.02-3.23-1.5-3.22-3.27l.24-39.78c.02-1.77,1.49-3.23,3.26-3.22l75.44.46c27.99.17,46.96-17.09,47.12-43.32l.25-40.66-69.84-.43c-1.77-.02-2.95,1.15-2.97,2.92l-.13,21.51,14.15.09c2.06,0,3.82,1.8,3.81,3.86l-.18,29.17c-.02,2.06-1.8,3.81-3.86,3.81l-58.34-.36c-1.77-.02-2.94-1.48-2.93-3.26l.26-41.84c0-.59.3-1.47.6-1.77l14.23-14.35-20.92-.12c-1.77-.02-3.23-1.2-3.23-2.98l.24-40.06c.02-1.77,1.49-3.23,3.27-3.22l168.25,1.02c2.36.02,4.13,1.5,4.11,3.86l-.49,80.15c-.34,55.69-38.88,92.58-96.34,92.23l-72.79-.44Z"/>
      <path class="cls-1" d="M4744.12,1203.07c-.89.59-1.48,1.17-2.66,1.16l-30.95-.19c-2.06,0-3.23-1.49-3.22-3.26l.65-106.37c.02-1.77,1.2-3.23,3.27-3.23l44.49.27c1.77,0,2.94,1.48,2.93,3.26l-.58,94.29c0,1.18-.3,1.77-1.19,2.64l-12.75,11.42Z"/>
      <path class="cls-1" d="M4955.61,1121.55c.88,1.19,1.75,3.25,1.74,5.02l-.85,139.68c0,2.06-1.19,3.23-2.97,3.23l-40.37-.24c-1.77-.02-2.64-1.19-2.63-3.26l.75-123.77-3.81-3.55-69.55-.43-.78,127.3c0,2.06-.91,3.23-2.67,3.23l-40.37-.25c-1.77,0-2.95-1.19-2.93-3.26l1.04-170.31c.02-1.77,1.5-3.23,3.27-3.22l129.95.79c1.47,0,2.94.9,4.11,1.79l26.07,27.26Z"/>
      <path class="cls-1" d="M5227.47,1094.33c2.06.02,3.23,1.49,3.22,3.27l-1.04,170.31c-.02,2.06-1.2,3.23-3.27,3.22l-40.37-.24c-1.48,0-2.94-1.19-2.93-3.26l.78-127.3-61.88-.38c-1.77,0-2.66,1.16-2.67,2.93l-.76,124.35c0,2.06-1.49,3.23-3.26,3.23l-70.43-.43c-2.06-.02-3.23-1.19-3.22-3.26l.24-39.78c0-1.77,1.19-3.23,3.26-3.23l26.23.16.42-68.07c0-.59.3-1.18.6-1.76l14.23-14.35-30.95-.19c-1.77,0-2.64-1.19-2.63-2.97l.24-40.06c.02-1.77.91-3.23,2.67-3.23l171.5,1.04Z"/>
      <path class="cls-1" d="M5453.48,1095.71c1.77.02,3.23,1.2,3.22,2.97l-.52,85.74c-.33,55.11-39.17,93.18-95.45,92.84-56.28-.34-94.36-38.88-94.02-93.99l.53-85.74c0-1.77,1.19-2.94,2.96-2.92l41.26.25c1.77,0,2.94,1.19,2.93,2.96l-.5,82.8c-.19,30.94,19.13,52.58,47.12,52.74,28.29.18,48.46-21.22,48.65-52.16l.24-40.37-13.27-.08c-1.17,0-2.66.88-3.25,2.04l-25.29,39.34c-1.18,1.17-2.37,2.34-3.55,2.34l-43.31-.27c-2.66-.02-3.82-2.68-2.33-5.32l51.18-81.6c.6-1.18,2.37-2.05,3.84-2.04l79.56.48Z"/>
      <path class="cls-1" d="M5525.58,1207.83c-.89.59-1.48,1.17-2.66,1.16l-30.94-.18c-2.06-.02-3.23-1.5-3.22-3.27l.65-106.37c0-1.77,1.19-3.23,3.26-3.22l44.5.27c1.77.02,2.94,1.49,2.92,3.27l-.57,94.29c0,1.18-.3,1.76-1.19,2.64l-12.74,11.41Z"/>
      <path class="cls-1" d="M5572.55,1189.25c.08-13.55,5.18-27.67,13.49-38.52,2.38-3.23,5.94-6.16,8.89-8.2l-.29-.6c-4.72.57-10.31.83-14.45.81l-11.78-.08c-1.77,0-2.94-1.19-2.93-2.97l.24-40.36c.02-1.77,1.19-2.94,2.97-2.93l97.83.6c55.11.33,92.9,36.8,92.57,90.13-.33,55.11-38.58,93.19-93.68,92.85-55.4-.34-93.19-37.41-92.86-90.74ZM5712.53,1188.34c.16-26.23-20.63-47.57-46.86-47.73-26.52-.16-47.57,20.93-47.73,47.16-.16,26.52,20.63,47.86,47.16,48.02,26.23.16,47.28-20.92,47.44-47.45Z"/>
      <path class="cls-1" d="M5891.16,1275.18c-1.77,0-2.65-1.19-2.63-3.26l.75-123.77-3.81-3.55-108.14-.65c-1.77-.02-3.23-1.2-3.23-2.98l.24-40.06c.02-1.77,1.49-3.23,3.27-3.22l125.83.76c1.47,0,2.94.91,4.11,1.8l26.06,27.26c.88,1.18,1.75,3.25,1.74,5.02l-.85,139.68c0,2.06-1.19,3.23-2.96,3.23l-40.37-.25Z"/>
      <path class="cls-1" d="M6137.78,1230.41c1.77.02,2.94,1.5,2.93,3.27l-.24,39.78c-.02,2.06-1.19,3.23-2.97,3.22l-173.56-1.05c-1.77-.02-2.94-1.2-2.92-3.27l.24-39.78c0-1.77,1.19-3.23,2.96-3.22l107.27.65.52-84.27-101.08-.61c-1.77-.02-2.94-1.2-2.93-2.98l.24-40.06c.02-1.77,1.2-3.23,2.97-3.22l144.69.88c1.48,0,2.64,1.48,2.63,3.26l-.75,123.76c-.02,2.06,1.74,3.55,3.81,3.56l16.2.09Z"/>
      <path class="cls-1" d="M6195.36,1211.9c-.89.59-1.48,1.17-2.66,1.16l-30.94-.18c-2.06-.02-3.23-1.5-3.22-3.27l.65-106.37c0-1.77,1.19-3.23,3.26-3.22l44.5.27c1.77.02,2.94,1.49,2.92,3.27l-.57,94.29c0,1.18-.3,1.76-1.19,2.64l-12.74,11.41Z"/>
      <path class="cls-1" d="M6317.74,1100.98c1.77,0,2.94,1.48,2.92,3.26l-1.04,170.31c-.02,2.06-1.2,3.23-2.97,3.23l-78.38-.48c-1.77,0-3.23-1.19-3.22-3.26l.24-39.78c0-1.77,1.49-3.23,3.26-3.23l31.24.19c1.77.02,2.95-1.16,2.96-2.63l.49-81.63-29.47-.18c-1.77-.02-2.94-1.19-2.92-2.97l.24-40.06c0-1.77,1.19-3.24,2.96-3.23l73.67.45Z"/>
      <path class="cls-1" d="M6414.39,1101.56c1.77.02,3.23,1.49,3.23,3.27l-1.04,170.31c0,2.06-1.49,3.23-3.26,3.22l-40.37-.24c-2.06-.02-2.94-1.19-2.92-3.26l.78-127.3-18.27-.11c-1.77-.02-2.94-1.19-2.93-2.97l.24-40.06c.02-1.77,1.2-3.24,2.97-3.23l61.59.37Z"/>
      <path class="cls-1" d="M6457.21,1278.63c-1.77,0-2.94-1.19-2.92-2.96l.65-106.09c0-1.77.31-3.24,1.8-4.7l18.38-18.16c1.19-1.17,1.49-3.23.32-4.72l-26.9-34.04c-1.76-2.08-.25-6.2,3.58-6.17l44.2.27c2.35.02,4.7,1.49,6.16,3.28l70.78,87.94,4.45-5.58.5-81.91c0-1.77.9-3.23,2.66-3.23l40.67.25c1.77,0,2.94,1.48,2.92,3.26l-.55,90.16c0,1.77-.61,3.53-1.8,4.7l-24.31,24.02,38.9,48.27c1.76,2.07.84,6.49-3.58,6.46l-44.49-.27c-1.77,0-3.53-.9-4.41-2.38l-80.15-98.92-2.96,2.93-.58,94.89c0,1.77-1.19,2.94-2.66,2.93l-40.67-.25Z"/>
    </g>
    <g>
      <path class="cls-2" d="M11,191.43c-1.04,0-1.83-.8-1.81-2.11l.69-113.86c0-.53.26-1.04.53-1.3l8.43-8.58-16.75-.11c-1.05,0-2.09-.79-2.09-2.1l.15-24.61c0-1.31,1.06-2.09,2.11-2.09l153.11.94c1.04,0,1.83.79,1.82,2.1l-.91,150.5c-.02,1.31-.81,2.09-1.85,2.09l-143.43-.88ZM38.66,162.81l88.73.54.59-97.11-86.63-.53c-1.3,0-2.1.77-2.1,1.82l-.59,95.27Z"/>
      <path class="cls-2" d="M223.11,134.88c-.53.52-1.05.78-1.58.78l-19.63-.12c-1.31,0-2.09-.79-2.08-2.1l.57-93.7c0-1.05.79-1.83,2.1-1.83l27.75.18c1.04,0,1.82.79,1.82,1.84l-.53,86.37c0,.53-.27,1.04-.8,1.56l-7.63,7.02Z"/>
      <path class="cls-2" d="M295.35,135.32c-.53.52-1.05.78-1.58.78l-19.63-.12c-1.31,0-2.09-.79-2.08-2.1l.57-93.7c0-1.05.79-1.83,2.1-1.83l27.75.17c1.04,0,1.82.8,1.82,1.85l-.53,86.37c0,.53-.27,1.04-.8,1.56l-7.63,7.02Z"/>
      <path class="cls-2" d="M474.45,39.56c1.31,0,1.83.79,1.83,1.84l-.14,21.72c0,.53-.27,1.58-.8,2.88l-53.12,125.57c-.53,1.58-1.84,2.35-3.42,2.34l-26.17-.16c-2.09,0-2.87-1.58-1.8-3.67l51.25-121.93-103.12-.62c-1.05,0-2.09-.8-2.09-2.11l.39-63.6c0-1.31.8-1.83,2.11-1.82l25.13.15c1.04,0,1.83.53,1.82,1.84l-.21,35.07c0,1.05.77,1.84,1.82,1.85l106.52.65Z"/>
      <path class="cls-2" d="M668.66,40.74c1.31,0,2.09.54,2.09,1.85l-.46,75.64c-.29,47.11-34.26,81.46-80.59,81.18-46.59-.28-80.14-35.04-79.85-82.15l.46-75.64c0-1.31.8-1.83,2.11-1.83l25.65.16c1.05,0,1.83.53,1.82,1.84l-.45,74.07c-.2,31.93,21.12,55.89,50.44,56.07,29.05.18,51.18-23.51,51.37-55.44l.29-47.64-17.01-.11c-.78,0-1.83.52-2.37,1.56l-30.11,45.1c-.79.78-1.58,1.56-2.1,1.56l-28.01-.18c-1.58,0-2.34-1.58-1.55-3.15l46.5-71.43c.53-1.05,2.11-1.82,3.42-1.81l58.36.35Z"/>
      <path class="cls-2" d="M734.05,137.99c-.53.52-1.05.78-1.58.78l-19.63-.12c-1.31,0-2.09-.79-2.08-2.1l.57-93.7c0-1.05.79-1.83,2.1-1.83l27.75.17c1.04,0,1.82.8,1.82,1.85l-.53,86.37c0,.53-.27,1.04-.8,1.56l-7.63,7.02Z"/>
      <path class="cls-2" d="M840.65,41.79c1.04,0,2.09.54,2.08,1.58l31.02,151.22c.24,1.32-.55,2.62-1.86,2.61l-23.81-.14c-1.05,0-1.57-.79-1.82-1.59l-8.23-25.43c-12.95,20.85-24.77,26.28-41.25,26.18l-22.5-.14c-1.05,0-2.09-.8-2.08-2.11l.14-24.86c0-1.31,1.07-2.09,2.11-2.08l25.91.15c14.65.09,27.79-7.42,33.09-18.64l-15.5-78.1-30.36-.18c-1.31,0-2.09-.8-2.08-2.11l.14-24.61c0-1.31.8-2.09,2.11-2.08l52.87.32Z"/>
      <path class="cls-2" d="M926.18,139.16c-.53.52-1.06.78-1.58.78l-19.64-.12c-1.31,0-2.09-.8-2.08-2.11l.57-93.7c0-1.05.8-1.83,2.11-1.82l27.74.17c1.05,0,1.83.8,1.82,1.85l-.53,86.37c0,.53-.27,1.04-.79,1.56l-7.63,7.02Z"/>
      <path class="cls-2" d="M1110.77,43.43c1.31,0,2.09.8,2.08,2.11l-.14,24.61c0,1.31-.8,2.09-2.11,2.08l-24.61-.14c-1.04,0-1.83.77-1.84,1.82l-.74,121.97c-.02,1.31-.8,2.09-1.85,2.09l-25.65-.16c-1.31,0-1.83-.79-1.82-2.1l.68-113.6c0-.52.27-1.31.54-1.57l8.43-8.58-96.57-.59c-1.05,0-2.09-.79-2.09-2.1l.15-24.61c0-1.31,1.06-2.09,2.11-2.09l143.42.88Z"/>
      <path class="cls-2" d="M1288.77,44.52c1.31,0,2.09.79,2.08,2.1l-.91,150.5c0,1.31-.8,2.09-2.11,2.09l-25.12-.15c-1.31-.02-1.83-.8-1.82-2.11l.75-123.8-114.64-.7c-1.04,0-2.09-.79-2.08-2.1l.14-24.61c0-1.31,1.07-2.09,2.11-2.09l141.6.87ZM1149.89,198.37c-1.05,0-1.83-.79-1.82-2.1l.45-74.59c0-.53.27-1.05.53-1.31l10.53-10.66c.53-.79,1.58-1.04,2.37-1.04l14.13.09c1.05,0,1.83.79,1.82,2.1l-.52,85.59c-.02,1.31-.8,2.09-1.85,2.09l-25.65-.16Z"/>
      <path class="cls-2" d="M1538.07,70.64c.52.79,1.04,1.84,1.03,2.88l-.76,125.11c0,1.31-.8,2.09-1.85,2.09l-25.12-.15c-1.31-.02-1.83-.8-1.82-2.11l.7-114.91-9.1-8.95-71.72-.44-.75,123.8c-.02,1.31-.54,2.09-1.85,2.09l-25.13-.15c-1.04,0-1.83-.8-1.81-2.11l.91-150.5c0-1.31,1.06-2.09,2.11-2.08l109.66.67c.79-.26,1.57.27,2.35,1.07l23.15,23.69Z"/>
      <path class="cls-2" d="M1622.77,46.56c1.05,0,2.09.8,2.08,2.11l-.91,150.5c0,1.31-.8,2.09-2.11,2.08l-25.12-.15c-1.31,0-1.83-.8-1.82-2.11l.75-123.8-21.72-.13c-1.05,0-2.09-.8-2.09-2.11l.14-24.61c0-1.31,1.07-2.09,2.12-2.08l48.68.3Z"/>
      <path class="cls-2" d="M1769.71,202.14c-1.31,0-1.83-.79-1.81-2.1l.69-114.91-9.1-8.96-98.67-.59c-1.04,0-2.09-.8-2.09-2.11l.15-24.61c0-1.31,1.07-2.09,2.11-2.08l109.93.66c.78-.25,1.56.28,2.34,1.07l23.15,23.7c.52.78,1.04,1.84,1.04,2.88l-.76,125.11c-.02,1.31-.81,2.09-1.85,2.08l-25.13-.15Z"/>
      <path class="cls-2" d="M1983.2,48.75c1.31,0,2.09.8,2.08,2.11l-.91,150.5c-.02,1.31-.8,2.09-2.11,2.08l-25.13-.15c-1.31,0-1.83-.79-1.82-2.1l.75-123.8-114.63-.7c-1.05,0-2.09-.8-2.09-2.11l.15-24.61c0-1.31,1.06-2.09,2.11-2.08l141.6.86ZM1844.32,202.6c-1.04,0-1.83-.8-1.81-2.11l.45-74.59c0-.53.27-1.04.53-1.3l10.53-10.67c.53-.78,1.58-1.04,2.36-1.04l14.14.08c1.04,0,1.83.8,1.81,2.11l-.52,85.59c0,1.31-.8,2.09-1.84,2.08l-25.66-.15Z"/>
      <path class="cls-2" d="M2115.33,146.41c-.53.51-1.06.78-1.58.77l-19.64-.11c-1.31,0-2.09-.8-2.08-2.11l.57-93.7c0-1.05.8-1.83,2.11-1.82l27.74.17c1.05,0,1.83.79,1.82,1.84l-.53,86.37c0,.53-.27,1.04-.79,1.57l-7.63,7.02Z"/>
      <path class="cls-2" d="M2291.02,50.63c1.31,0,2.09.79,2.09,1.84l-.45,72.76c-.29,47.9-33.72,79.9-83.72,79.59l-65.17-.4c-1.31,0-2.09-.8-2.08-2.11l.14-24.61c0-1.31.8-2.09,2.11-2.08l27.22.16c1.05,0,1.84-.77,1.85-1.82l.75-122.23c0-1.05.79-1.83,2.1-1.83l25.13.16c1.31,0,1.82.79,1.82,1.84l-.76,124.06,11.26.07c29.84-.34,50.12-20.11,50.3-49.42l.45-74.33c0-1.05.54-1.83,1.85-1.82l25.12.15Z"/>
      <path class="cls-2" d="M2468.75,51.71c1.31,0,2.09.8,2.08,2.11l-.14,24.61c0,1.31-.8,2.09-2.11,2.08l-24.61-.15c-1.04,0-1.83.78-1.84,1.83l-.74,121.97c-.02,1.31-.8,2.09-1.85,2.08l-25.65-.15c-1.31,0-1.83-.8-1.82-2.11l.69-113.6c0-.52.27-1.31.53-1.56l8.43-8.59-96.58-.59c-1.04,0-2.09-.8-2.08-2.11l.15-24.61c0-1.31,1.06-2.09,2.1-2.08l143.43.88Z"/>
      <path class="cls-2" d="M2563.62,206.46c-1.04-.27-1.82-1.06-1.81-2.37l.92-23.03c.02-1.83,1.85-2.61,3.94-2.33,3.92,1.59,12.54,2.95,17.78,2.98,30.1.18,51.7-21.41,51.88-52.03.18-30.36-18.8-50.89-45.76-50.79-22.76-.14-40.69,19.38-46.62,48.66l-15.39,77.38c-.27,1.05-1.06,1.83-2.11,1.83l-24.86-.15c-1.31,0-2.09-1.07-1.82-2.37l15.41-81.05c1.89-8.88,4.29-17.24,8.53-25.85l-31.16-40.5c-1.56-2.11-.75-4.99,2.12-4.96l28.79.18c1.04,0,1.83.27,2.09,1.06l15.85,18.42c13.96-14.31,31.81-21.8,49.34-21.69,45.02.28,74.93,32.13,74.64,79.51-.3,48.42-32.69,80.42-81.11,80.13-7.07-.05-12.82-.87-20.66-3.01Z"/>
      <path class="cls-2" d="M2827.62,53.89c1.31,0,1.83.8,1.82,1.85l-.13,21.72c0,.53-.27,1.57-.81,2.88l-53.12,125.57c-.53,1.58-1.84,2.35-3.42,2.34l-26.17-.16c-2.09,0-2.86-1.58-1.8-3.67l51.26-121.93-103.12-.62c-1.05,0-2.09-.8-2.09-2.11l.39-63.6c0-1.31.8-1.83,2.11-1.82l25.12.15c1.04,0,1.83.53,1.82,1.84l-.21,35.07c0,1.05.77,1.84,1.82,1.85l106.53.65Z"/>
      <path class="cls-2" d="M3070.01,55.37c1.31,0,2.09.8,2.08,2.11l-.91,150.5c-.02,1.31-.8,2.09-2.11,2.08l-25.13-.15c-1.31,0-1.83-.8-1.82-2.11l.75-123.8-114.64-.69c-1.04,0-2.09-.8-2.08-2.11l.14-24.61c0-1.31,1.07-2.09,2.11-2.08l141.61.86ZM2931.13,209.22c-1.05,0-1.83-.8-1.82-2.11l.45-74.59c0-.53.27-1.05.53-1.3l10.53-10.67c.53-.79,1.58-1.04,2.37-1.04l14.13.08c1.05,0,1.83.8,1.82,2.11l-.52,85.59c-.02,1.31-.8,2.09-1.85,2.08l-25.65-.15Z"/>
      <path class="cls-2" d="M3175.86,210.18c-1.05-.26-1.83-1.05-1.82-2.36l.93-23.03c0-1.83,1.85-2.61,3.93-2.33,3.92,1.59,12.55,2.95,17.79,2.98,30.1.18,51.69-21.41,51.88-52.03.18-30.36-18.8-50.89-45.76-50.79-22.77-.14-40.69,19.38-46.62,48.66l-15.39,77.38c-.27,1.05-1.06,1.83-2.11,1.83l-24.86-.15c-1.31,0-2.09-1.07-1.82-2.37l15.41-81.05c1.89-8.88,4.29-17.24,8.53-25.85l-31.16-40.5c-1.56-2.11-.75-4.99,2.12-4.96l28.79.18c1.05,0,1.83.27,2.09,1.06l15.86,18.42c13.96-14.31,31.8-21.8,49.33-21.69,45.03.27,74.93,32.13,74.64,79.51-.3,48.42-32.68,80.42-81.11,80.13-7.06-.05-12.82-.87-20.66-3.01Z"/>
      <path class="cls-2" d="M3370.87,211.37c-1.04-.27-1.82-1.06-1.81-2.37l.92-23.03c.02-1.83,1.85-2.61,3.94-2.33,3.92,1.59,12.54,2.95,17.78,2.98,30.1.18,51.7-21.41,51.88-52.03.18-30.36-18.8-50.89-45.76-50.79-22.76-.14-40.69,19.38-46.62,48.66l-15.39,77.38c-.27,1.05-1.06,1.83-2.11,1.83l-24.86-.15c-1.31,0-2.09-1.07-1.81-2.37l15.41-81.05c1.89-8.88,4.29-17.24,8.53-25.85l-31.16-40.5c-1.56-2.11-.76-4.99,2.12-4.96l28.79.18c1.04,0,1.83.27,2.09,1.06l15.85,18.42c13.96-14.31,31.81-21.8,49.34-21.69,45.02.27,74.92,32.13,74.63,79.51-.29,48.42-32.68,80.42-81.1,80.13-7.07-.05-12.82-.87-20.66-3.01Z"/>
      <path class="cls-2" d="M3645.19,83.47c.52.79,1.04,1.84,1.03,2.88l-.76,125.11c0,1.31-.8,2.09-1.85,2.09l-25.12-.15c-1.31,0-1.83-.8-1.82-2.11l.7-114.91-9.1-8.95-71.72-.44-.75,123.8c-.02,1.31-.54,2.09-1.85,2.09l-25.13-.15c-1.04,0-1.83-.8-1.81-2.11l.91-150.5c0-1.31,1.06-2.09,2.11-2.08l109.66.67c.79-.26,1.57.27,2.35,1.07l23.15,23.69Z"/>
      <path class="cls-2" d="M3729.89,59.39c1.05,0,2.09.8,2.08,2.11l-.91,150.5c0,1.31-.8,2.09-2.11,2.08l-25.12-.15c-1.31,0-1.83-.8-1.82-2.11l.75-123.8-21.72-.13c-1.05,0-2.09-.8-2.09-2.11l.14-24.61c0-1.31,1.07-2.09,2.12-2.08l48.68.3Z"/>
      <path class="cls-2" d="M3983,60.93c1.31,0,2.09.79,2.08,2.1l-.91,150.5c0,1.31-.8,2.09-2.11,2.09l-25.12-.16c-1.31,0-1.83-.79-1.82-2.1l.75-123.8-114.64-.7c-1.04,0-2.09-.79-2.08-2.1l.14-24.61c0-1.31,1.07-2.09,2.11-2.09l141.6.87ZM3844.13,214.78c-1.05,0-1.83-.79-1.82-2.1l.45-74.59c0-.53.27-1.05.53-1.31l10.53-10.66c.53-.79,1.58-1.04,2.36-1.04l14.14.09c1.04,0,1.83.79,1.81,2.1l-.52,85.59c0,1.31-.8,2.09-1.84,2.09l-25.65-.16Z"/>
      <path class="cls-2" d="M4163.35,62.03c1.31,0,2.09.8,2.08,2.11l-.15,24.61c0,1.31-.79,2.09-2.1,2.08l-24.61-.15c-1.05,0-1.84.78-1.84,1.83l-.75,121.97c0,1.31-.8,2.09-1.84,2.08l-25.66-.15c-1.31,0-1.83-.8-1.81-2.11l.68-113.6c0-.52.27-1.31.53-1.56l8.43-8.59-96.58-.59c-1.04,0-2.09-.8-2.08-2.11l.14-24.61c0-1.31,1.07-2.09,2.11-2.08l143.43.88Z"/>
      <path class="cls-2" d="M4343.98,189.03c1.31,0,1.83.8,1.82,1.85l-.15,24.86c0,1.31-.53,2.09-1.84,2.08l-152.85-.93c-1.05,0-2.09-.8-2.08-2.11l.14-24.61c0-1.31,1.06-2.09,2.11-2.08l103.64.63.59-97.11-96.57-.59c-1.05,0-2.09-.79-2.09-2.1l.14-24.61c0-1.31,1.07-2.09,2.12-2.09l123.8.75c1.04,0,1.83.8,1.82,2.11l-.73,119.88c-.02,2.09,1.54,3.93,3.64,3.95l16.49.1Z"/>
      <path class="cls-2" d="M4512.01,64.15c1.31,0,2.09.8,2.08,1.85l-.44,72.76c-.29,47.9-33.73,79.89-83.73,79.59l-65.16-.4c-1.31,0-2.09-.8-2.08-2.11l.14-24.61c0-1.31.8-2.09,2.11-2.08l27.22.17c1.05,0,1.84-.78,1.85-1.83l.75-122.23c0-1.05.79-1.83,2.1-1.82l25.12.15c1.31,0,1.83.79,1.82,1.84l-.75,124.06,11.26.07c29.84-.34,50.12-20.11,50.29-49.42l.46-74.33c0-1.05.53-1.83,1.84-1.82l25.13.15Z"/>
      <path class="cls-2" d="M4615.25,218.95c-1.05-.27-1.83-1.05-1.82-2.36l.93-23.04c0-1.83,1.85-2.6,3.93-2.32,3.92,1.59,12.55,2.95,17.79,2.98,30.1.18,51.69-21.41,51.88-52.03.18-30.36-18.8-50.89-45.76-50.79-22.77-.14-40.69,19.38-46.62,48.66l-15.39,77.38c-.27,1.05-1.06,1.83-2.11,1.83l-24.86-.15c-1.31,0-2.09-1.07-1.81-2.37l15.41-81.05c1.89-8.88,4.29-17.25,8.53-25.85l-31.16-40.5c-1.56-2.12-.76-4.99,2.12-4.97l28.79.18c1.04,0,1.83.28,2.09,1.07l15.85,18.42c13.96-14.31,31.8-21.8,49.33-21.69,45.03.27,74.93,32.12,74.64,79.5-.29,48.42-32.68,80.43-81.11,80.13-7.06-.05-12.82-.87-20.66-3.01Z"/>
      <path class="cls-2" d="M4808.81,156.52c-1.3,0-2.09-.53-2.08-1.84l.15-24.87c0-1.04.8-2.09,2.1-2.08l99.72.61c1.58,0,2.09,1.06,2.09,2.1l-.15,24.87c0,1.31-.53,1.83-2.11,1.82l-99.72-.61Z"/>
      <path class="cls-2" d="M5050.96,67.43c1.04,0,2.09.8,2.08,2.11l-.91,150.5c-.02,1.31-.8,2.09-2.11,2.08l-25.13-.15c-1.31,0-1.83-.79-1.82-2.1l.75-123.8-21.72-.14c-1.05,0-2.09-.79-2.09-2.1l.15-24.61c0-1.31,1.06-2.09,2.11-2.09l48.69.3Z"/>
      <path class="cls-2" d="M5239.94,68.58c1.31,0,2.09.8,2.08,2.11l-.91,150.5c-.02,1.31-.8,2.09-2.11,2.08l-25.13-.15c-1.31,0-1.83-.79-1.82-2.1l.75-123.8-114.63-.7c-1.05,0-2.09-.8-2.09-2.11l.15-24.61c0-1.31,1.06-2.09,2.11-2.08l141.6.86ZM5101.06,222.43c-1.04,0-1.83-.79-1.82-2.1l.46-74.59c0-.53.27-1.05.53-1.31l10.53-10.67c.53-.78,1.58-1.04,2.36-1.04l14.14.09c1.04,0,1.83.79,1.81,2.1l-.52,85.59c0,1.31-.8,2.09-1.84,2.09l-25.66-.16Z"/>
      <path class="cls-2" d="M5307.94,165.85c-.53.52-1.05.78-1.58.78l-19.63-.12c-1.31,0-2.09-.79-2.08-2.1l.57-93.7c0-1.05.79-1.83,2.1-1.83l27.75.17c1.04,0,1.82.8,1.82,1.85l-.53,86.37c0,.53-.27,1.04-.8,1.56l-7.63,7.02Z"/>
      <path class="cls-2" d="M5487.03,70.09c1.31,0,1.83.8,1.83,1.85l-.14,21.72c0,.53-.27,1.57-.8,2.88l-53.12,125.57c-.53,1.58-1.85,2.35-3.42,2.34l-26.17-.16c-2.09,0-2.87-1.58-1.81-3.67l51.26-121.93-103.12-.62c-1.05,0-2.09-.8-2.09-2.11l.39-63.6c0-1.31.8-1.83,2.11-1.82l25.12.15c1.05,0,1.83.53,1.82,1.84l-.21,35.07c0,1.05.78,1.84,1.83,1.85l106.52.65Z"/>
      <path class="cls-2" d="M5525.63,225.54c-1.05,0-1.83-1.07-1.82-2.11l.59-96.85c0-1.04.27-2.09,1.07-2.87l17.12-16.91c.79-.78.79-1.83.02-2.88l-24.42-29.73c-1.29-1.58-.24-3.93,2.12-3.91l28,.17c1.31,0,2.88.8,3.65,1.86l71.72,84.98,11.85-12.23.44-72.24c0-1.05.8-1.83,1.85-1.82l25.38.15c1.05,0,1.83.8,1.83,1.85l-.48,78.26c0,1.04-.54,2.34-1.07,2.87l-23.7,23.41,36.9,44.2c1.3,1.58.5,4.19-2.12,4.17l-28.53-.18c-.78,0-1.83-.53-2.34-1.32l-82.64-97.87-7.63,7.8-.55,89.26c0,1.04-.8,2.09-1.85,2.08l-25.38-.15Z"/>
      <path class="cls-2" d="M5925.22,72.76c1.31,0,2.09.79,2.08,2.1l-.91,150.5c-.02,1.31-.8,2.09-2.11,2.09l-25.13-.15c-1.04,0-1.83-.8-1.81-2.11l.75-123.8-71.72-.43c-1.31,0-1.84.77-1.85,1.82l-.74,121.97c-.02,1.31-.8,2.09-2.11,2.09l-56.02-.34c-1.31,0-2.09-.8-2.08-2.11l.15-24.61c0-1.31.79-2.09,2.1-2.08l28.53.18.53-87.16c0-.53.27-1.05.53-1.31l8.43-8.58-28.53-.18c-1.04,0-1.83-.8-1.82-2.11l.15-24.61c0-1.31.8-2.09,1.84-2.08l149.72.91Z"/>
      <path class="cls-2" d="M6105.56,73.85c1.31,0,2.09.8,2.08,2.11l-.14,24.61c0,1.31-.8,2.09-2.11,2.08l-24.61-.15c-1.04,0-1.83.78-1.84,1.83l-.74,121.97c-.02,1.31-.8,2.09-1.85,2.08l-25.65-.15c-1.31,0-1.83-.8-1.82-2.11l.68-113.6c0-.52.27-1.3.54-1.56l8.43-8.58-96.58-.59c-1.04,0-2.09-.79-2.08-2.1l.14-24.61c0-1.31,1.07-2.09,2.11-2.09l143.43.88Z"/>
      <path class="cls-2" d="M6286.19,200.86c1.31,0,1.83.8,1.82,1.85l-.14,24.86c-.02,1.31-.54,2.09-1.85,2.08l-152.85-.93c-1.05,0-2.09-.8-2.08-2.11l.14-24.61c0-1.31,1.06-2.09,2.11-2.08l103.65.63.59-97.11-96.58-.59c-1.05,0-2.09-.8-2.09-2.11l.14-24.61c0-1.31,1.07-2.09,2.12-2.08l123.8.75c1.05,0,1.83.79,1.82,2.1l-.72,119.88c-.02,2.09,1.54,3.93,3.64,3.95l16.48.1Z"/>
      <path class="cls-2" d="M6454.22,75.98c1.31,0,2.09.8,2.09,1.85l-.45,72.76c-.29,47.9-33.72,79.89-83.72,79.59l-65.17-.4c-1.31,0-2.09-.8-2.08-2.11l.15-24.61c0-1.31.79-2.09,2.1-2.08l27.22.17c1.05,0,1.84-.78,1.85-1.83l.75-122.23c0-1.05.79-1.83,2.1-1.82l25.13.15c1.31,0,1.82.79,1.82,1.84l-.76,124.06,11.26.07c29.84-.34,50.12-20.11,50.3-49.42l.45-74.33c0-1.05.54-1.83,1.85-1.82l25.12.15Z"/>
      <path class="cls-2" d="M6557.45,230.77c-1.04-.26-1.82-1.05-1.81-2.36l.92-23.03c.02-1.83,1.85-2.61,3.94-2.33,3.92,1.59,12.54,2.95,17.78,2.98,30.1.18,51.7-21.41,51.88-52.03.18-30.36-18.8-50.89-45.76-50.79-22.77-.14-40.69,19.38-46.63,48.66l-15.39,77.38c-.27,1.05-1.06,1.83-2.11,1.83l-24.86-.15c-1.31,0-2.09-1.07-1.82-2.37l15.41-81.05c1.89-8.88,4.29-17.24,8.53-25.85l-31.16-40.5c-1.56-2.11-.75-4.99,2.12-4.97l28.79.18c1.04,0,1.83.27,2.09,1.06l15.85,18.42c13.96-14.31,31.81-21.8,49.34-21.69,45.02.27,74.93,32.12,74.64,79.5-.3,48.42-32.69,80.43-81.11,80.13-7.07-.05-12.82-.87-20.66-3.01Z"/>
      <path class="cls-2" d="M328,419.25c.27-44.05,35.9-79.54,80.23-79.27,43.76.27,79.24,35.89,79.27,79.94-.02,2.31-.31,4.03-.62,6.33,0,1.73-1.16,2.59-2.89,2.58l-126.38-.78c3.01,24.49,23.92,43.34,49.83,43.5,18.14.11,34.32-9.29,43.34-24.21.87-1.15,2.31-1.43,3.74-.56l18.35,11.63c1.44.87,1.71,2.88.55,4.32-13.66,22.38-38.51,36.91-66.14,36.74-44.05-.27-79.53-36.18-79.27-80.23ZM457.34,407.36c-5.05-22.77-25.1-39.3-49.28-39.45-24.18-.15-44.73,16.13-50.04,38.85l99.32.6Z"/>
      <path class="cls-2" d="M523.33,495.57c-1.73,0-3.15-1.45-3.14-3.18l1.21-198.93c.02-1.73,1.45-2.88,3.18-2.87l28.5.18c1.73.02,3.17,1.18,3.15,2.91l-1.04,170.43c0,1.44,1.13,2.6,2.57,2.6l89.82.55c1.73,0,2.87,1.45,2.86,3.18l-.14,22.75c0,1.73-1.16,3.16-2.89,3.15l-124.09-.76Z"/>
      <path class="cls-2" d="M683.02,326.97c-1.16,0-2.59-1.16-2.58-2.6l.16-25.91c0-1.44,1.45-2.87,2.61-2.86l30.8.19c1.16,0,2.3,1.45,2.29,2.89l-.16,25.91c0,1.43-1.16,2.57-2.32,2.56l-30.8-.19ZM711.4,346.43c1.73.02,2.88,1.16,2.86,2.89l-.88,144.82c-.02,1.44-1.17,2.59-2.33,2.58l-27.35-.17c-1.16,0-2.3-1.16-2.28-2.6l.88-144.82c.02-1.73,1.17-2.87,2.9-2.86l26.2.16Z"/>
      <path class="cls-2" d="M730.65,544.62c-.58,0-1.15-.57-1.14-1.15l.14-22.74c0-1.44,1.16-2.02,2.31-1.72,4.02,1.76,9.77,2.65,12.65,2.67,10.37.06,16.74-7.67,16.83-21.49l.92-150.57c0-1.73,1.16-2.87,2.89-2.86l26.2.16c1.73.02,2.87,1.16,2.86,2.89l-.92,151.44c-.19,31.09-15.26,47.41-39.74,47.26-7.48-.05-17.27-1.54-23.01-3.89ZM763.06,327.45c-1.15,0-2.29-1.16-2.28-2.59l.15-25.91c.02-1.44,1.17-2.88,2.32-2.87l30.81.19c1.15,0,2.58,1.45,2.57,2.89l-.16,25.91c0,1.43-1.45,2.57-2.6,2.56l-30.81-.19Z"/>
      <path class="cls-2" d="M839.47,357.58c0-.87.59-1.45,1.16-1.72,19.63-8.23,38.65-12.15,56.79-12.04,38.29.24,63.78,23.13,63.55,60.27l-.36,57.87,3.27,31.98c.56,2.59-.6,4.31-2.91,4.3l-24.47-.15c-1.45,0-2.59-1.16-2.86-2.89l-2.75-21.33c-12.2,17.21-32.7,26.58-57.17,26.43-28.5-.18-47.4-17.56-47.24-43.18.11-17.85,11.14-33.33,29.61-40.99,17.03-7.67,42.98-12.12,71.77-12.52.87,0,1.15-.56,1.16-1.14-.43-22.75-13.62-33.2-36.07-33.33-15.83-.1-36.01,4.67-51.33,13.22-1.16.56-2.3-.02-2.29-1.45l.14-23.32ZM929.07,441.62l.1-16.99c0-.58-.28-1.15-1.14-1.16-23.32-.14-44.65,3.75-57.07,10.59-7.8,4.27-12.15,10.3-12.2,18.36-.08,13.53,11.67,21.37,28.08,21.47,24.18.14,39.8-12.42,42.23-32.27Z"/>
      <path class="cls-2" d="M1004.75,498.51c-1.15,0-2.3-1.16-2.28-2.6l1.21-199.8c.02-1.44,1.17-2.59,2.32-2.58l26.77.16c1.44,0,2.59,1.17,2.57,2.61l-.41,67.64c0,2.02,2.29,2.9,3.74,1.47,9.58-12.32,28.91-20.27,47.63-20.15,29.36.18,48.84,17.28,48.63,53.27l-.6,98.18c0,1.44-1.17,2.58-2.61,2.57l-26.77-.16c-1.15,0-2.29-1.16-2.28-2.6l.54-88.68c.13-21.01-11.03-33.46-29.74-33.58-19.29-.11-34.62,13.04-38.78,32.3l-.54,89.54c-.02,1.44-1.17,2.58-2.61,2.57l-26.77-.16Z"/>
      <path class="cls-2" d="M1171.61,428.99c-1.44,0-2.3-.59-2.29-2.03l.17-27.35c0-1.16.88-2.3,2.32-2.29l109.69.67c1.72,0,2.29,1.16,2.28,2.31l-.16,27.35c-.02,1.44-.59,2.02-2.32,2.01l-109.69-.67Z"/>
      <path class="cls-2" d="M1322.34,500.44c-1.73-.02-3.16-1.46-3.15-3.19l1.22-198.93c0-1.73,1.45-2.88,3.18-2.86l28.5.18c1.73,0,3.16,1.17,3.15,2.9l-1.04,170.43c0,1.44,1.14,2.6,2.58,2.6l89.82.55c1.73,0,2.87,1.45,2.85,3.18l-.14,22.75c0,1.73-1.17,3.16-2.9,3.15l-124.08-.75Z"/>
      <path class="cls-2" d="M1479.54,361.48c0-.87.59-1.45,1.16-1.72,19.63-8.23,38.65-12.15,56.79-12.04,38.29.24,63.78,23.13,63.55,60.27l-.36,57.87,3.27,31.98c.56,2.6-.6,4.32-2.91,4.3l-24.47-.15c-1.45,0-2.59-1.16-2.86-2.89l-2.75-21.33c-12.2,17.2-32.7,26.58-57.16,26.42-28.5-.18-47.4-17.56-47.25-43.18.11-17.85,11.14-33.33,29.62-40.99,17.03-7.67,42.97-12.12,71.76-12.52.87,0,1.15-.56,1.16-1.14-.43-22.75-13.62-33.19-36.07-33.33-15.84-.1-36.01,4.67-51.33,13.22-1.16.56-2.31-.02-2.3-1.45l.14-23.32ZM1569.14,445.52l.1-16.99c0-.58-.28-1.15-1.14-1.16-23.32-.14-44.64,3.75-57.07,10.59-7.79,4.27-12.15,10.3-12.2,18.36-.08,13.53,11.67,21.37,28.08,21.47,24.19.15,39.8-12.42,42.23-32.27Z"/>
      <path class="cls-2" d="M1670.27,483.56l-.1,16.13c0,1.44-1.17,2.87-2.9,2.86l-23.03-.14c-1.44,0-2.58-1.45-2.57-2.89l1.21-199.22c.02-1.73,1.17-2.88,2.61-2.87l26.2.16c1.44,0,2.88,1.18,2.86,2.91l-.4,66.78c10.15-11.74,27.19-19.7,45.61-19.59,44.04.27,79.52,36.18,79.26,80.23-.27,44.05-36.18,79.52-80.23,79.26-17.56-.11-37.38-8.86-48.51-23.62ZM1767.92,427.43c.16-27.35-21.58-49.36-48.93-49.52-27.35-.17-49.36,21.58-49.53,48.92-.17,27.35,21.58,49.08,48.93,49.25,27.06.16,49.36-21.29,49.53-48.65Z"/>
      <path class="cls-2" d="M1867.61,466.91c1.44,0,2.3.88,2.29,2.32l-.2,32.24c0,1.45-.88,2.3-2.32,2.29l-32.53-.2c-1.45,0-2.3-.88-2.29-2.32l.2-32.24c0-1.45.88-2.3,2.31-2.29l32.54.2ZM1868.32,351.18c1.44,0,2.29.88,2.28,2.32l-.2,32.24c0,1.45-.88,2.3-2.31,2.29l-32.53-.2c-1.45,0-2.31-.88-2.3-2.32l.2-32.24c0-1.44.88-2.3,2.32-2.29l32.54.2Z"/>
      <path class="cls-2" d="M1978.8,364.52c0-.87.59-1.44,1.16-1.72,19.63-8.23,38.65-12.15,56.79-12.03,38.29.23,63.78,23.13,63.55,60.27l-.36,57.87,3.27,31.98c.56,2.59-.6,4.31-2.91,4.29l-24.47-.14c-1.45,0-2.59-1.16-2.86-2.9l-2.75-21.33c-12.2,17.2-32.7,26.58-57.17,26.42-28.5-.17-47.4-17.56-47.24-43.18.11-17.85,11.14-33.33,29.61-40.98,17.03-7.67,42.98-12.12,71.77-12.53.87,0,1.15-.56,1.16-1.14-.43-22.74-13.62-33.19-36.07-33.33-15.83-.09-36.01,4.67-51.33,13.22-1.16.56-2.3-.02-2.29-1.45l.14-23.32ZM2068.41,448.55l.1-16.99c0-.58-.28-1.15-1.14-1.15-23.32-.14-44.65,3.75-57.07,10.59-7.8,4.27-12.15,10.29-12.2,18.35-.08,13.53,11.67,21.38,28.08,21.48,24.18.14,39.8-12.42,42.23-32.28Z"/>
      <path class="cls-2" d="M2143.51,505.44c-1.15,0-2.29-1.45-2.28-2.6l.88-145.11c0-1.44,1.16-2.58,2.32-2.57l26.49.16c1.15,0,2.58,1.16,2.57,2.6l-.08,13.53c-.02,2.6,1.42,3.17,2.88,1.16,9.29-12.31,28.91-20.55,47.34-20.43,29.08.18,50.28,17.3,50.06,53.28l-.6,98.18c0,1.15-1.45,2.57-2.6,2.56l-26.77-.16c-1.16,0-2.3-1.45-2.29-2.6l.54-88.68c.13-21.01-11.31-33.46-29.74-33.58-18.71-.11-34.91,12.46-38.77,31.15l-.56,90.69c0,1.15-1.45,2.58-2.61,2.57l-26.77-.16Z"/>
      <path class="cls-2" d="M2382.78,506.9c-1.73,0-3.16-1.45-3.15-3.18l1.22-198.93c0-1.73,1.45-2.88,3.18-2.87l28.5.18c1.73,0,3.16,1.18,3.15,2.91l-1.22,198.93c0,1.73-1.45,3.15-3.18,3.14l-28.5-.18Z"/>
      <path class="cls-2" d="M2463.97,507.39c-1.15,0-2.29-1.45-2.28-2.6l.88-145.11c0-1.44,1.17-2.58,2.32-2.57l26.49.16c1.15,0,2.58,1.17,2.57,2.61l-.08,13.53c-.02,2.6,1.42,3.17,2.88,1.16,9.29-12.32,28.91-20.55,47.34-20.43,29.07.18,50.28,17.29,50.06,53.28l-.59,98.18c0,1.15-1.46,2.58-2.61,2.57l-26.77-.17c-1.15,0-2.29-1.45-2.28-2.6l.53-88.68c.13-21.01-11.31-33.47-29.74-33.58-18.71-.11-34.9,12.46-38.76,31.15l-.56,90.69c0,1.15-1.45,2.58-2.61,2.57l-26.77-.17Z"/>
      <path class="cls-2" d="M2619.34,433.2c.27-44.05,35.89-79.53,80.23-79.27,33.39.21,61.77,21.4,73.11,50.26,1.13,2.02-.31,3.74-2.61,3.72l-29.08-.18c-.87,0-1.44-.29-1.73-.87-8.55-13.01-23.19-21.45-39.88-21.55-26.77-.16-48.78,21.29-48.95,48.36-.17,26.77,21.29,48.5,48.36,48.66,17.85.11,33.74-9.3,42.18-23.93.58-.57,1.16-.85,2.02-.85l27.92.18c2.02,0,3.16,1.45,2.56,3.47-10.83,30.44-40.34,52.44-74.88,52.22-44.04-.27-79.53-36.18-79.26-80.23Z"/>
      <path class="cls-2" d="M2805.47,459.96l.6-98.18c0-1.44.88-2.58,2.31-2.57l27.06.17c1.44,0,2.59,1.16,2.58,2.6l-.55,88.96c-.13,22.17,10.16,33.46,30.03,33.58,18.43.11,34.33-12.17,38.46-29.99l.56-92.13c0-1.44,1.17-2.58,2.32-2.57l27.06.16c1.44,0,2.58,1.16,2.57,2.6l-.88,145.11c0,1.44-1.17,2.58-2.61,2.57l-27.06-.16c-1.15,0-2.29-1.16-2.28-2.6l.1-16.13c.02-2.02-1.42-2.6-2.01-1.74-10.44,14.05-29.51,23.43-48.5,23.31-31.1-.18-49.98-19.59-49.77-52.99Z"/>
      <path class="cls-2" d="M3009.14,491.71l-.1,16.13c0,1.44-1.16,2.87-2.89,2.86l-23.04-.14c-1.44,0-2.58-1.45-2.57-2.89l1.22-199.22c0-1.73,1.16-2.88,2.6-2.87l26.2.16c1.44,0,2.87,1.17,2.86,2.9l-.41,66.78c10.15-11.74,27.19-19.7,45.61-19.59,44.05.27,79.53,36.18,79.26,80.23-.27,44.05-36.18,79.53-80.22,79.26-17.57-.11-37.38-8.86-48.52-23.62ZM3106.79,435.59c.17-27.35-21.58-49.36-48.93-49.52-27.35-.17-49.36,21.58-49.52,48.93-.17,27.35,21.58,49.07,48.93,49.24,27.06.17,49.36-21.29,49.52-48.65Z"/>
      <path class="cls-2" d="M3169.1,371.77c0-.87.59-1.45,1.16-1.72,19.63-8.23,38.65-12.15,56.79-12.04,38.29.24,63.77,23.13,63.54,60.27l-.35,57.87,3.26,31.98c.56,2.6-.6,4.32-2.91,4.3l-24.46-.15c-1.45,0-2.59-1.16-2.86-2.89l-2.75-21.33c-12.2,17.2-32.7,26.58-57.17,26.42-28.5-.18-47.4-17.56-47.24-43.18.11-17.85,11.14-33.33,29.61-40.99,17.03-7.67,42.98-12.12,71.77-12.52.87,0,1.15-.56,1.16-1.14-.43-22.75-13.62-33.19-36.07-33.33-15.83-.1-36.01,4.67-51.33,13.22-1.16.56-2.3-.02-2.29-1.45l.14-23.32ZM3258.71,455.81l.1-16.99c0-.58-.28-1.15-1.14-1.16-23.32-.14-44.65,3.75-57.07,10.59-7.8,4.27-12.15,10.3-12.2,18.36-.08,13.53,11.67,21.37,28.08,21.47,24.18.15,39.8-12.42,42.23-32.27Z"/>
      <path class="cls-2" d="M3340.99,467.25l.46-76c0-1.73-1.14-2.6-2.58-2.61l-22.17-.14c-1.44,0-2.58-1.16-2.57-2.6l.13-21.02c0-1.44,1.16-2.58,2.6-2.57l22.17.14c1.44,0,2.6-1.14,2.61-2.58l.3-49.8c0-1.15.88-2.3,2.31-2.29l26.77.16c1.15,0,2.59,1.17,2.58,2.32l-.3,49.8c0,1.44.84,2.6,2.57,2.61l28.79.18c1.73.02,2.58,1.16,2.57,2.6l-.13,21.02c0,1.44-.88,2.59-2.6,2.57l-28.79-.18c-1.73,0-2.6.85-2.6,2.58l-.46,75.14c-.09,13.81,6.2,21.63,16.85,21.7,4.6.02,11.23-1.09,15.27-2.5,1.16-.56,2.02.3,2.01,1.45l-.14,21.6c0,1.15-.59,2.29-2.02,2.57-6.07,2.55-16.44,3.65-24.79,3.59-24.47-.14-39.05-16.64-38.86-47.74Z"/>
      <path class="cls-2" d="M3422.95,438.09c.27-44.05,35.9-79.24,80.23-78.98,44.05.27,79.24,35.9,78.98,79.95-.27,44.05-35.9,79.52-79.95,79.26-44.04-.27-79.52-36.18-79.26-80.23ZM3551.06,438.87c.17-26.77-21.29-48.5-48.07-48.66-26.77-.16-48.78,21.01-48.94,48.07-.17,26.77,21.29,48.78,48.35,48.95,26.77.17,48.5-21.29,48.66-48.36Z"/>
      <path class="cls-2" d="M3615.4,514.41c-1.15,0-2.29-1.16-2.28-2.6l.88-145.11c0-1.44,1.17-2.58,2.32-2.57l25.63.15c1.44,0,2.29,1.16,2.28,2.6l-.11,18.14c-.02,3.17.84,3.75,3.16,1.18,8.71-13.2,22.01-22.33,42.46-23.36,2.31-.27,4.6.03,6.62.33,1.44,0,2.58,1.16,2.57,2.6l-.16,26.2c0,1.73-1.45,2.88-2.89,2.57-2.31,0-4.03-.31-5.76-.32-21.88-.14-37.5,12.44-44.83,34.85l-.5,82.92c0,1.44-1.16,2.58-2.61,2.57l-26.77-.16Z"/>
      <path class="cls-2" d="M3808.6,515.58c-1.15,0-2.29-1.16-2.28-2.6l.72-118.9c.02-1.73-.84-2.6-2.57-2.61l-21.88-.13c-1.44,0-2.59-1.45-2.57-2.89l.12-20.73c0-1.44,1.17-2.58,2.61-2.57l21.88.13c1.73.02,2.6-1.14,2.6-2.58l.05-8.92c.2-32.53,14.1-45.69,43.75-45.5,6.33.04,12.95.66,19.85,1.85,1.44,0,2.3,1.16,2.29,2.32l-.11,18.43c0,1.72-1.45,3.16-3.47,2.85-2.59-.59-7.19-.91-9.79-.93-12.66-.08-22.19,3.9-22.29,21.74l-.05,8.35c0,1.44,1.13,2.6,2.58,2.61l29.07.18c1.44,0,2.58,1.16,2.57,2.6l-.12,20.73c-.02,1.44-1.17,2.87-2.61,2.86l-27.63-.17c-1.44,0-2.6.85-2.61,2.58l-.72,118.9c0,1.44-1.17,2.58-2.61,2.57l-26.77-.17Z"/>
      <path class="cls-2" d="M3881.91,440.89c.27-44.05,35.9-79.25,80.23-78.98,44.05.27,79.24,35.9,78.98,79.95-.27,44.05-35.89,79.53-79.94,79.26-44.05-.27-79.53-36.17-79.27-80.22ZM4010.02,441.67c.16-26.77-21.3-48.5-48.08-48.66-26.77-.16-48.78,21.01-48.94,48.07-.17,26.77,21.29,48.79,48.36,48.95,26.77.17,48.5-21.29,48.66-48.36Z"/>
      <path class="cls-2" d="M4074.36,517.2c-1.15,0-2.3-1.16-2.28-2.6l.88-145.11c0-1.44,1.16-2.58,2.31-2.57l25.63.15c1.44.02,2.3,1.16,2.29,2.6l-.11,18.14c-.02,3.17.84,3.75,3.16,1.18,8.72-13.19,22.02-22.33,42.47-23.35,2.31-.28,4.6.02,6.62.33,1.44,0,2.58,1.16,2.57,2.6l-.16,26.2c0,1.73-1.45,2.88-2.89,2.58-2.31-.02-4.03-.32-5.76-.33-21.88-.13-37.5,12.44-44.83,34.85l-.5,82.92c-.02,1.44-1.17,2.58-2.61,2.57l-26.77-.16Z"/>
      <path class="cls-2" d="M4324.94,313.74c61.61.38,106.84,42.68,106.47,102.57-.37,60.17-46.11,102.79-107.72,102.41l-62.76-.38c-1.73,0-3.16-1.45-3.15-3.18l1.22-198.93c0-1.73,1.45-2.88,3.18-2.87l62.76.38ZM4295.96,345.81c-1.44,0-2.6,1.13-2.6,2.57l-.83,135.88c0,1.45,1.13,2.6,2.57,2.61l28.5.18c42.89.27,73.6-28.92,73.85-70.38.25-40.88-30.09-70.42-72.99-70.69l-28.5-.18Z"/>
      <path class="cls-2" d="M4470.72,350.03c-1.15,0-2.58-1.16-2.57-2.6l.15-25.91c.02-1.44,1.46-2.87,2.61-2.86l30.81.19c1.15,0,2.3,1.45,2.28,2.89l-.15,25.91c0,1.43-1.17,2.57-2.32,2.56l-30.81-.19ZM4499.11,369.5c1.73,0,2.87,1.16,2.86,2.89l-.88,144.82c0,1.44-1.17,2.58-2.32,2.58l-27.35-.17c-1.15,0-2.29-1.16-2.28-2.6l.88-144.82c0-1.73,1.16-2.87,2.89-2.86l26.2.16Z"/>
      <path class="cls-2" d="M4683.36,371.78l-.15,25.33c-.02,1.74-1.46,2.87-2.9,2.57-2.3-.3-4.03-.3-5.75-.31-6.05-.04-11.81.78-17,2.19,3.98,7.8,5.94,16.74,5.88,26.24-.12,19.86-9.73,37.36-24.19,48.5,18.62,13.94,30.58,36.46,30.43,61.51-.11,19-6.84,36.81-19.01,49.69-.88,1.15-2.6,1.42-3.74.27l-18.05-15.66c-1.15-.87-1.42-2.6-.27-3.74,7.53-7.72,11.63-18.64,11.71-30.73.16-26.49-20.16-46.19-46.36-46.35-14.39-.09-24.79,4.74-34.07,14.48-1.16,1.14-2.6,1.13-3.74.26l-18.62-15.94c-1.14-.88-.84-2.6.02-3.46,6.67-7.15,13.62-12.87,21.12-16.86-10.58-11-17.12-26.01-17.02-42.71.21-33.4,27.73-60.58,61.41-60.38,15.25.09,29.32,5.94,39.63,15.21,7.25-6.86,16.48-11.71,31.47-13.05,2.3-.27,4.6.03,6.61.33,1.44.02,2.59,1.16,2.58,2.61ZM4601.33,461.68h1.16c18.71.12,33.77-14.76,33.88-33.76.11-18.71-14.76-33.78-33.47-33.89-18.71-.11-34.07,14.77-34.18,33.48-.11,17.85,13.05,32.04,30.02,33.87.87,0,1.73.3,2.59.3Z"/>
      <path class="cls-2" d="M4718.05,351.54c-1.16,0-2.59-1.16-2.58-2.6l.16-25.91c0-1.44,1.45-2.87,2.61-2.86l30.8.19c1.16,0,2.3,1.45,2.29,2.89l-.16,25.91c0,1.43-1.16,2.57-2.32,2.56l-30.8-.19ZM4746.43,371.01c1.73,0,2.88,1.16,2.86,2.89l-.88,144.82c-.02,1.44-1.17,2.58-2.33,2.57l-27.35-.16c-1.16,0-2.3-1.16-2.28-2.6l.88-144.82c.02-1.73,1.17-2.87,2.9-2.86l26.2.16Z"/>
      <path class="cls-2" d="M4804.24,476.16l.46-76c.02-1.73-1.13-2.6-2.57-2.61l-22.17-.14c-1.44,0-2.58-1.16-2.57-2.6l.13-21.02c0-1.44,1.16-2.58,2.6-2.57l22.17.14c1.44,0,2.6-1.14,2.6-2.58l.3-49.8c0-1.15.88-2.31,2.31-2.29l26.77.16c1.16,0,2.59,1.17,2.58,2.32l-.3,49.8c0,1.44.85,2.6,2.58,2.61l28.79.18c1.73.02,2.58,1.16,2.57,2.6l-.13,21.02c0,1.44-.88,2.59-2.6,2.57l-28.79-.18c-1.73,0-2.6.85-2.61,2.58l-.46,75.14c-.08,13.81,6.2,21.63,16.86,21.7,4.6.02,11.23-1.09,15.27-2.5,1.15-.56,2.01.3,2,1.45l-.13,21.6c0,1.15-.59,2.3-2.03,2.58-6.06,2.55-16.43,3.65-24.78,3.59-24.48-.15-39.06-16.64-38.87-47.74Z"/>
      <path class="cls-2" d="M4898.97,382.3c0-.87.59-1.44,1.16-1.72,19.63-8.23,38.65-12.15,56.79-12.04,38.29.24,63.77,23.14,63.54,60.28l-.35,57.87,3.26,31.97c.56,2.6-.6,4.32-2.91,4.3l-24.47-.15c-1.44,0-2.58-1.16-2.86-2.89l-2.75-21.33c-12.19,17.2-32.7,26.58-57.16,26.42-28.5-.18-47.4-17.56-47.24-43.18.11-17.85,11.14-33.33,29.61-40.98,17.03-7.68,42.98-12.12,71.77-12.53.86,0,1.15-.56,1.15-1.14-.43-22.75-13.61-33.19-36.07-33.33-15.83-.1-36.01,4.67-51.33,13.22-1.16.56-2.3-.02-2.29-1.45l.14-23.32ZM4988.58,466.34l.11-16.99c0-.58-.28-1.15-1.15-1.16-23.31-.14-44.64,3.76-57.07,10.59-7.8,4.26-12.15,10.29-12.2,18.35-.08,13.53,11.67,21.37,28.08,21.48,24.18.14,39.8-12.43,42.22-32.28Z"/>
      <path class="cls-2" d="M5063.97,523.23c-1.15,0-2.29-1.16-2.28-2.6l1.22-199.8c0-1.44,1.16-2.59,2.31-2.58l27.06.16c1.44.02,2.59,1.18,2.57,2.62l-1.21,199.8c-.02,1.44-1.17,2.58-2.61,2.56l-27.06-.16Z"/>
      <path class="cls-2" d="M5207.93,524.11c-1.73,0-3.15-1.46-3.14-3.19l1.21-198.93c.02-1.73,1.45-2.87,3.18-2.86l28.5.18c1.73,0,3.17,1.17,3.15,2.9l-.48,79.16c0,1.45,1.13,2.6,2.57,2.61l90.98.56c1.44,0,2.6-1.13,2.6-2.58l.49-79.16c0-1.73,1.16-2.88,2.89-2.86l28.79.18c1.72,0,2.87,1.17,2.86,2.9l-1.22,198.93c0,1.73-1.17,3.16-2.89,3.15l-28.79-.18c-1.73-.02-2.87-1.46-2.86-3.19l.52-84.93c.02-1.45-1.13-2.6-2.57-2.61l-90.97-.56c-1.44,0-2.6,1.13-2.61,2.58l-.52,84.93c0,1.73-1.46,3.16-3.19,3.15l-28.5-.18Z"/>
      <path class="cls-2" d="M5415.26,475.85l.6-98.18c0-1.44.88-2.59,2.31-2.58l27.06.17c1.44,0,2.59,1.16,2.58,2.6l-.55,88.96c-.13,22.17,10.16,33.46,30.03,33.58,18.43.11,34.33-12.16,38.47-29.99l.56-92.13c0-1.44,1.16-2.58,2.31-2.57l27.06.17c1.44,0,2.59,1.16,2.58,2.6l-.88,145.11c-.02,1.44-1.17,2.58-2.61,2.57l-27.06-.17c-1.15,0-2.3-1.16-2.28-2.6l.09-16.13c.02-2.02-1.42-2.6-2-1.74-10.45,14.05-29.51,23.43-48.51,23.32-31.1-.19-49.98-19.59-49.77-52.99Z"/>
      <path class="cls-2" d="M5592.6,526.45c-1.15,0-2.29-1.16-2.28-2.6l.88-145.11c0-1.44,1.17-2.58,2.32-2.57l26.77.16c1.44,0,2.58,1.16,2.57,2.6l-.09,15.26c-.02,2.31,1.42,2.88,3.17.89,8.71-12.62,24.03-22.03,43.31-21.91,21.88.14,35.93,10.01,41.59,27.03.56,2.02,1.71,2.02,2.88.3,6.71-14.65,23.49-26.92,45.07-26.79,30.52.18,45.37,21.29,45.17,53.53l-.59,97.89c-.02,1.44-1.46,2.58-2.61,2.57l-26.77-.16c-1.44,0-2.3-1.16-2.28-2.6l.54-89.83c.13-20.44-8.73-32.3-25.14-32.4-17.27-.11-30.02,13.07-33.87,30.31l-.56,91.56c0,1.44-1.45,2.58-2.61,2.57l-26.77-.17c-1.44,0-2.29-1.16-2.28-2.6l.56-92.42c.11-18.71-8.74-29.72-24.86-29.82-17.28-.1-30.31,11.91-34.16,30.89l-.56,90.98c0,1.44-1.16,2.58-2.6,2.57l-26.78-.16Z"/>
      <path class="cls-2" d="M5845.11,388.06c0-.87.59-1.44,1.16-1.72,19.63-8.23,38.65-12.15,56.79-12.04,38.29.24,63.77,23.14,63.54,60.28l-.35,57.87,3.26,31.97c.56,2.6-.6,4.32-2.91,4.3l-24.47-.14c-1.44-.02-2.58-1.17-2.86-2.9l-2.75-21.33c-12.19,17.2-32.7,26.58-57.16,26.42-28.5-.18-47.4-17.56-47.24-43.18.11-17.85,11.14-33.33,29.61-40.98,17.03-7.68,42.98-12.12,71.77-12.53.86,0,1.15-.56,1.15-1.14-.43-22.74-13.61-33.19-36.07-33.33-15.83-.1-36.01,4.67-51.33,13.22-1.16.56-2.3-.02-2.29-1.45l.14-23.32ZM5934.71,472.1l.11-16.99c0-.58-.28-1.15-1.15-1.16-23.31-.14-44.64,3.76-57.07,10.59-7.8,4.27-12.15,10.29-12.2,18.35-.08,13.53,11.67,21.38,28.08,21.48,24.18.14,39.8-12.43,42.22-32.28Z"/>
      <path class="cls-2" d="M6009.82,528.99c-1.15,0-2.29-1.45-2.28-2.6l.88-145.11c0-1.44,1.16-2.58,2.32-2.57l26.49.16c1.15,0,2.58,1.16,2.57,2.6l-.08,13.53c-.02,2.6,1.42,3.17,2.88,1.16,9.29-12.31,28.91-20.55,47.34-20.43,29.08.18,50.28,17.29,50.06,53.28l-.59,98.18c0,1.15-1.46,2.58-2.61,2.57l-26.77-.16c-1.16,0-2.3-1.45-2.29-2.6l.54-88.68c.13-21.01-11.31-33.46-29.74-33.58-18.71-.11-34.91,12.46-38.77,31.15l-.56,90.69c0,1.15-1.45,2.58-2.61,2.57l-26.77-.16Z"/>
      <path class="cls-2" d="M6187.17,484.58l.46-76c.02-1.73-1.13-2.6-2.57-2.61l-22.17-.13c-1.44-.02-2.58-1.17-2.57-2.61l.13-21.02c0-1.44,1.16-2.58,2.6-2.56l22.17.13c1.44,0,2.6-1.14,2.6-2.58l.3-49.8c0-1.15.88-2.3,2.31-2.29l26.77.17c1.16,0,2.59,1.17,2.58,2.32l-.3,49.8c0,1.44.85,2.6,2.58,2.61l28.79.18c1.73,0,2.58,1.16,2.57,2.6l-.13,21.02c0,1.44-.88,2.58-2.6,2.57l-28.79-.18c-1.73-.02-2.6.85-2.61,2.58l-.46,75.14c-.08,13.81,6.2,21.63,16.86,21.69,4.6.03,11.23-1.09,15.27-2.5,1.15-.57,2.01.3,2,1.45l-.13,21.6c0,1.15-.59,2.3-2.03,2.57-6.06,2.56-16.43,3.65-24.78,3.6-24.48-.15-39.06-16.65-38.87-47.75Z"/>
      <path class="cls-2" d="M6285.83,361.09c-1.16,0-2.59-1.16-2.58-2.6l.16-25.91c0-1.44,1.45-2.87,2.61-2.86l30.8.18c1.15,0,2.3,1.45,2.28,2.89l-.15,25.91c0,1.43-1.17,2.57-2.32,2.56l-30.8-.18ZM6314.21,380.56c1.73,0,2.87,1.16,2.86,2.89l-.88,144.82c0,1.44-1.17,2.58-2.32,2.57l-27.35-.17c-1.16,0-2.3-1.16-2.28-2.6l.88-144.82c.02-1.73,1.17-2.87,2.9-2.85l26.2.16Z"/>
      <path class="cls-2" d="M6350.03,455.92c.27-44.05,35.9-79.54,80.23-79.27,43.76.27,79.24,35.9,79.27,79.95-.02,2.31-.31,4.03-.62,6.33,0,1.73-1.16,2.59-2.89,2.57l-126.38-.77c3.01,24.49,23.92,43.34,49.83,43.49,18.14.11,34.32-9.29,43.34-24.2.88-1.15,2.31-1.43,3.74-.56l18.36,11.63c1.43.87,1.71,2.88.55,4.32-13.66,22.38-38.52,36.9-66.15,36.74-44.05-.27-79.53-36.17-79.27-80.22ZM6479.38,444.03c-5.05-22.77-25.09-39.3-49.28-39.45-24.18-.14-44.73,16.14-50.04,38.85l99.32.61Z"/>
      <path class="cls-2" d="M6535.08,519.81c-.58-.29-1.15-.87-1.14-1.45l.14-23.61c.02-1.44,1.45-2,2.6-1.42,15.77,11.32,41.92,19.26,57.46,19.35,18.14.11,31.71-7.01,31.79-19.67.1-15.55-12.83-19.94-37.56-24.99-29.34-5.35-57.8-11.58-57.61-43.53.17-27.63,25.9-45.61,61.89-45.4,18.71.11,37.11,5.12,54.33,14.44.57.29.86.88.86,1.16l-.16,25.05c0,1.44-1.45,2.28-2.6,1.42-17.49-11.91-34.73-18.06-50.28-18.16-19-.11-32,6.72-32.07,18.81-.09,14.68,11.99,17.92,33.84,22.09,32.22,5.67,61.81,14.48,61.62,46.43-.19,30.23-29.65,45.6-64.2,45.39-19-.11-42.57-6.88-58.92-15.91Z"/>
      <path class="cls-2" d="M1786.64,656.66l-.9,147.63-76.64-.46c-13.4-.08-24.34-1.1-32.81-3.03s-14.89-5.54-19.26-10.8c-4.36-5.26-7.35-12.71-8.97-22.35-1.63-9.64-2.38-22.31-2.28-38.02.09-15.71,1-28.37,2.75-37.99,1.73-9.62,4.81-17.04,9.24-22.25,4.43-5.21,10.89-8.73,19.38-10.56,8.49-1.83,19.44-2.71,32.84-2.63l76.64.46ZM1761.35,684.78l-66.91-.41c-7.75-.05-13.3,1.29-16.68,3.98-3.36,2.7-5.07,7.19-5.11,13.48l-.34,55.9c-.04,6.29,1.61,10.8,4.95,13.54,3.33,2.75,8.87,4.14,16.62,4.19l66.91.41.56-91.09ZM1694.52,618.4c-2.09-.02-4.5-.97-7.2-2.88-2.72-1.9-5.05-4.27-7.02-7.11-1.98-2.84-2.95-5.3-2.94-7.4.02-2.31,1.02-4.76,3.03-7.36,2-2.61,4.37-4.89,7.11-6.87,2.72-1.96,5.14-2.95,7.24-2.94,2.31.02,4.76,1.03,7.37,3.03,2.6,2.01,4.89,4.32,6.86,6.96,1.98,2.63,2.95,5.09,2.94,7.4,0,2.09-1.02,4.5-3.03,7.21-2,2.71-4.38,5.05-7.11,7.02-2.73,1.98-5.15,2.96-7.25,2.95ZM1739.76,618.68c-2.1,0-4.5-.97-7.21-2.87-2.72-1.91-5.05-4.28-7.02-7.12-1.98-2.84-2.95-5.3-2.94-7.4.02-2.31,1.02-4.76,3.03-7.36,2-2.61,4.37-4.89,7.11-6.86,2.73-1.97,5.14-2.95,7.25-2.95,2.3.02,4.75,1.03,7.36,3.03,2.6,2.01,4.89,4.32,6.86,6.96,1.97,2.63,2.95,5.09,2.94,7.4,0,2.09-1.02,4.5-3.03,7.21s-4.38,5.05-7.11,7.02c-2.73,1.98-5.15,2.96-7.24,2.95ZM1784.98,776.01l34.55.21-.18,28.27-34.55-.21.18-28.27Z"/>
      <path class="cls-2" d="M1920.84,543.13l-.06,62.19-80.86,21.18c-1.26.21-2.41.41-3.46.61-1.05.21-2.1.3-3.14.3-4.4-.02-7.58-2.04-9.54-6.03-1.97-3.99-2.91-10.49-2.86-19.49.03-5.65.43-11.57,1.2-17.74.77-6.17,1.8-11.56,3.08-16.17l18.24-2.4c-1.08,5.02-1.9,9.94-2.44,14.75-.56,4.82-.84,9.42-.88,13.82-.02,3.76.11,7.02.42,9.73.3,2.72.75,5.24,1.36,7.55l22.65-5.83c-1.65-3.36-2.44-10.18-2.38-20.43l.14-23.87,16.99-4.6-.27,44.92,22.02-5.53.28-45.54,19.51-7.42Z"/>
      <path class="cls-2" d="M1882.35,776.6l37.7.23-.18,28.27-113.08-.68.18-28.27,50.25.3.73-119.36,25.13.15-.73,119.36ZM1845.07,864.33c-2.1-.02-4.5-.97-7.21-2.88-2.71-1.9-5.05-4.27-7.02-7.11s-2.95-5.31-2.94-7.4c.02-2.31,1.02-4.76,3.03-7.37,2-2.61,4.38-4.89,7.11-6.86,2.73-1.98,5.14-2.95,7.24-2.94,2.31.02,4.76,1.02,7.37,3.03,2.6,2,4.89,4.32,6.87,6.95,1.96,2.63,2.95,5.1,2.94,7.41-.02,2.09-1.03,4.49-3.03,7.2-2.01,2.71-4.38,5.05-7.11,7.03-2.74,1.96-5.16,2.95-7.25,2.94ZM1890.3,864.6c-2.09-.02-4.5-.97-7.21-2.88-2.71-1.9-5.05-4.27-7.02-7.1-1.97-2.85-2.95-5.32-2.94-7.41.02-2.31,1.02-4.76,3.03-7.36,2-2.62,4.38-4.9,7.11-6.87,2.73-1.98,5.14-2.95,7.24-2.94,2.31.02,4.76,1.02,7.37,3.03,2.61,2,4.89,4.32,6.87,6.95,1.96,2.63,2.95,5.1,2.94,7.41-.02,2.09-1.03,4.49-3.03,7.2-2.01,2.71-4.38,5.05-7.11,7.03-2.74,1.97-5.15,2.95-7.25,2.94Z"/>
      <path class="cls-2" d="M2031.04,655c14.23.08,25.59,1.47,34.06,4.13,8.46,2.68,14.51,6.99,18.14,12.98,3.63,6,5.41,14.02,5.35,24.07l-.67,109.93-180.61-1.1.18-28.27,155.48.95.55-90.77c-5.02-1.29-10.24-2.21-15.69-2.77-5.44-.55-11.83-.85-19.16-.9-8.38-.05-17.59.52-27.65,1.72-10.06,1.19-19.61,3.01-28.62,5.47l-9.6-23.3c5.88-2.89,12.64-5.21,20.3-6.94s15.67-3.04,24.06-3.94c8.38-.89,16.34-1.31,23.88-1.26ZM1962.65,795c-5.82-6.74-9.64-15.61-11.46-26.61s-2.69-22.58-2.62-34.73c.08-11.93,1.45-23.43,4.14-34.52,2.68-11.08,6.04-21.74,10.09-31.98l23.51,7.37c-3.63,10.66-6.62,20.75-8.98,30.25-2.36,9.51-3.57,19.19-3.63,29.03-.05,7.54.27,14.87.97,22,.68,7.13,2.01,13.84,3.96,20.12,1.96,6.3,4.69,11.97,8.23,17.02l-24.2,2.05ZM2088.09,777.86l37.69.23-.17,28.27-37.7-.23.18-28.27Z"/>
      <path class="cls-2" d="M2113.21,778.01l50.25.3c-1.01-5.87-1.75-12.89-2.22-21.07-.48-8.17-.67-18.95-.59-32.35.08-13.6,1.1-24.86,3.04-33.74,1.94-8.9,5.33-15.88,10.18-20.99,4.85-5.1,11.57-8.72,20.18-10.87,8.59-2.15,19.6-3.18,33-3.11,11.52.08,22.19.88,32.02,2.4,9.83,1.53,21.03,4.11,33.57,7.75l-.86,141.03-178.72-1.09.17-28.27ZM2252.36,778.85c5.44.04,9.22-1.09,11.33-3.39,2.1-2.29,3.18-6.36,3.21-12.23l.48-77.9-65.34-.4c-5.65-.04-9.48,1.1-11.48,3.38-2.01,2.31-3.03,6.9-3.07,13.81l-.46,76.33,65.33.4ZM2204.63,621.51c-2.1,0-4.5-.97-7.21-2.87-2.72-1.91-5.05-4.28-7.02-7.12-1.98-2.84-2.95-5.3-2.94-7.4.02-2.31,1.02-4.76,3.03-7.36,2-2.61,4.37-4.89,7.11-6.86,2.73-1.97,5.14-2.95,7.25-2.95,2.3.02,4.75,1.03,7.36,3.03,2.6,2.01,4.89,4.32,6.87,6.96,1.97,2.63,2.95,5.09,2.94,7.4-.02,2.09-1.03,4.5-3.03,7.21-2.01,2.71-4.38,5.05-7.12,7.02-2.73,1.98-5.15,2.96-7.24,2.95ZM2249.87,621.79c-2.1-.02-4.5-.97-7.21-2.88s-5.05-4.27-7.02-7.12c-1.97-2.84-2.95-5.3-2.94-7.39.02-2.31,1.02-4.76,3.03-7.37,2-2.6,4.38-4.89,7.11-6.86,2.73-1.97,5.14-2.95,7.25-2.94,2.3,0,4.75,1.02,7.36,3.02,2.6,2.02,4.89,4.32,6.87,6.96,1.97,2.63,2.95,5.09,2.94,7.4-.02,2.09-1.03,4.51-3.03,7.21-2.01,2.71-4.38,5.05-7.11,7.02-2.74,1.98-5.15,2.96-7.25,2.95Z"/>
      <path class="cls-2" d="M2427.8,546.22l-.06,62.19-80.86,21.18c-1.26.21-2.41.4-3.46.6-1.05.21-2.1.31-3.14.3-4.4-.03-7.58-2.04-9.54-6.04-1.97-3.98-2.91-10.48-2.86-19.48.03-5.65.43-11.57,1.2-17.74.77-6.18,1.8-11.56,3.08-16.17l18.24-2.4c-1.08,5.02-1.9,9.93-2.44,14.75-.56,4.81-.84,9.41-.88,13.81-.02,3.77.11,7.02.42,9.74.3,2.72.75,5.24,1.36,7.55l22.65-5.83c-1.65-3.36-2.44-10.18-2.38-20.43l.14-23.87,16.99-4.61-.27,44.92,22.02-5.52.28-45.54,19.51-7.42Z"/>
      <path class="cls-2" d="M2342.15,889.03l-10.54-22.06c8.19-3.93,14.66-8.39,19.4-13.38,4.74-5.01,8.12-11.16,10.16-18.47,2.03-7.33,3.08-16.43,3.15-27.31l.9-147.63,25.13.15-.9,147.63c-.08,13.82-1.73,25.8-4.93,35.94s-8.28,18.84-15.24,26.14c-6.96,7.29-16,13.62-27.13,19ZM2389.31,779.69l37.7.23-.17,28.27-37.7-.23.17-28.27Z"/>
      <path class="cls-2" d="M2489.66,808.57l-75.38-.46.17-28.27,50.26.3,1.03-169.61,25.13.15-1.2,197.88Z"/>
      <path class="cls-2" d="M2552.48,808.95l1.2-197.88,25.13.15-1.2,197.88-25.13-.15Z"/>
      <path class="cls-2" d="M2855.54,663.16l-.9,147.63-76.64-.46c-13.41-.08-24.34-1.09-32.81-3.02-8.47-1.94-14.89-5.54-19.26-10.81-4.36-5.25-7.36-12.71-8.97-22.35-1.62-9.64-2.37-22.31-2.28-38.02.1-15.71,1-28.36,2.75-37.99,1.73-9.62,4.82-17.03,9.24-22.25,4.44-5.21,10.89-8.73,19.38-10.56,8.49-1.83,19.44-2.72,32.85-2.63l76.64.46ZM2830.25,691.28l-66.91-.4c-7.75-.05-13.31,1.28-16.68,3.97-3.37,2.71-5.07,7.19-5.11,13.48l-.34,55.9c-.04,6.29,1.61,10.81,4.94,13.54,3.33,2.75,8.88,4.15,16.63,4.19l66.91.4.56-91.09ZM2763.42,624.91c-2.09,0-4.5-.97-7.21-2.87-2.71-1.91-5.05-4.27-7.02-7.12-1.97-2.84-2.95-5.3-2.94-7.39.02-2.31,1.02-4.76,3.03-7.37,2-2.6,4.38-4.89,7.11-6.86s5.15-2.95,7.25-2.95c2.3.02,4.76,1.03,7.36,3.03,2.61,2.01,4.89,4.32,6.87,6.96,1.97,2.63,2.95,5.09,2.94,7.4-.02,2.09-1.02,4.5-3.03,7.21s-4.38,5.05-7.11,7.02c-2.74,1.98-5.15,2.96-7.25,2.95ZM2808.65,625.19c-2.09-.02-4.5-.97-7.21-2.88s-5.05-4.27-7.02-7.12c-1.97-2.83-2.95-5.3-2.94-7.39.02-2.31,1.02-4.76,3.03-7.37,2-2.6,4.38-4.89,7.11-6.86,2.73-1.97,5.15-2.95,7.25-2.94,2.31,0,4.76,1.02,7.37,3.03,2.6,2.01,4.89,4.32,6.86,6.95,1.97,2.63,2.95,5.09,2.94,7.4,0,2.09-1.02,4.51-3.03,7.21-2.01,2.71-4.38,5.05-7.11,7.02-2.73,1.98-5.15,2.96-7.25,2.95ZM2853.88,782.52l34.55.21-.18,28.27-34.55-.21.18-28.27Z"/>
      <path class="cls-2" d="M2989.74,549.64l-.07,62.19-80.86,21.19c-1.26.21-2.41.4-3.46.6-1.06.21-2.1.3-3.14.3-4.4-.03-7.59-2.05-9.54-6.04-1.97-3.99-2.91-10.49-2.86-19.48.03-5.66.43-11.57,1.2-17.75.77-6.17,1.8-11.55,3.08-16.16l18.24-2.4c-1.09,5.02-1.9,9.94-2.45,14.75-.56,4.82-.84,9.42-.87,13.82-.02,3.77.11,7.02.41,9.73.3,2.72.75,5.24,1.37,7.55l22.65-5.83c-1.66-3.36-2.45-10.18-2.39-20.43l.14-23.87,16.99-4.6-.27,44.92,22.03-5.52.27-45.54,19.52-7.43Z"/>
      <path class="cls-2" d="M2951.25,783.12l37.69.23-.17,28.27-113.08-.69.18-28.27,50.25.3.72-119.36,25.13.16-.72,119.36ZM2913.96,870.84c-2.09-.02-4.5-.97-7.2-2.88-2.72-1.9-5.06-4.27-7.03-7.1-1.97-2.85-2.95-5.32-2.94-7.41.02-2.31,1.02-4.76,3.03-7.36,2.01-2.62,4.38-4.9,7.12-6.87,2.72-1.97,5.14-2.95,7.24-2.94,2.3.02,4.76,1.02,7.37,3.03,2.6,2,4.89,4.32,6.86,6.96,1.97,2.63,2.95,5.09,2.94,7.4-.02,2.09-1.02,4.49-3.03,7.21-2.01,2.7-4.38,5.05-7.11,7.02-2.73,1.97-5.15,2.95-7.25,2.94ZM2959.19,871.11c-2.09,0-4.5-.97-7.2-2.87-2.72-1.9-5.06-4.28-7.02-7.11-1.98-2.85-2.96-5.32-2.95-7.41.02-2.31,1.02-4.76,3.04-7.36,2-2.62,4.37-4.9,7.11-6.86,2.72-1.98,5.14-2.95,7.24-2.95,2.3.02,4.76,1.02,7.37,3.03,2.6,2,4.89,4.32,6.86,6.96,1.97,2.63,2.95,5.09,2.94,7.4-.02,2.09-1.02,4.49-3.03,7.21-2.01,2.7-4.38,5.05-7.11,7.02-2.73,1.97-5.15,2.95-7.25,2.94Z"/>
      <path class="cls-2" d="M2976.2,811.53l.17-28.27,50.26.3.72-119.36,25.13.15-.9,147.63-75.38-.46ZM3040.15,626.6c-2.09-.02-4.5-.97-7.21-2.88s-5.05-4.27-7.02-7.12c-1.97-2.83-2.95-5.3-2.94-7.39.02-2.31,1.03-4.76,3.03-7.37,2.01-2.6,4.38-4.89,7.11-6.86,2.73-1.97,5.15-2.95,7.25-2.94,2.31.02,4.76,1.03,7.37,3.03,2.6,2.01,4.89,4.32,6.86,6.95,1.97,2.63,2.95,5.1,2.94,7.41,0,2.09-1.02,4.5-3.03,7.2-2.01,2.72-4.38,5.05-7.11,7.02s-5.15,2.96-7.25,2.95Z"/>
      <path class="cls-2" d="M3114.41,812.37l1.2-197.88,25.13.15-1.04,169.61,37.7.23-.18,28.27-62.82-.38Z"/>
      <path class="cls-2" d="M3240.05,813.14l-75.39-.46.18-28.27,50.25.31.56-91.09,25.13.15-.72,119.35ZM3271.46,813.33l-31.4-.19.17-28.27,45.54.27c8.8.05,15.08-1.01,18.87-3.19s5.69-6.61,5.74-13.31l.45-74.43,25.13.15-.37,59.99c-.07,11.93-.92,21.77-2.54,29.51-1.61,7.74-4.69,13.79-9.22,18.17-4.53,4.37-10.99,7.37-19.37,8.99-8.39,1.63-19.38,2.4-33,2.31ZM3373.86,813.95c-13.4-.08-24.29-.99-32.65-2.71-8.37-1.73-14.8-4.8-19.27-9.23-4.48-4.42-7.53-10.52-9.16-18.27-1.63-7.76-2.4-17.6-2.33-29.54l.37-59.99,25.13.15-.45,74.43c-.05,6.71,1.81,11.16,5.56,13.38,3.76,2.22,10.04,3.36,18.83,3.42l41.78.25c1.51-7.32,2.55-15.11,3.13-23.39.57-8.27.9-17.85.96-28.74.06-9.21-.62-19.16-2.02-29.84-1.4-10.69-3.32-21.59-5.77-32.71l24.84-3.93c1.43,5.46,2.76,12.12,3.97,19.97,1.2,7.86,2.21,15.82,2.99,23.89.78,8.07,1.16,15.34,1.13,21.84-.13,20.73-1.8,37-5.01,48.81-3.21,11.82-8.87,20.16-16.96,25.03-8.1,4.87-19.79,7.26-35.07,7.17ZM3410.15,785.91l58.11.35-.18,28.27-94.23-.57,36.3-28.05Z"/>
      <path class="cls-2" d="M3455.53,814.45l.17-28.27,50.25.3.73-119.36,25.13.16-.9,147.62-75.38-.46ZM3519.47,629.52c-2.1,0-4.5-.97-7.21-2.87-2.71-1.91-5.05-4.27-7.02-7.12-1.97-2.84-2.95-5.3-2.94-7.39.02-2.31,1.02-4.76,3.03-7.37,2-2.6,4.38-4.89,7.11-6.86s5.14-2.95,7.25-2.95c2.3.02,4.75,1.03,7.36,3.03,2.6,2.01,4.89,4.32,6.87,6.96,1.97,2.63,2.95,5.09,2.94,7.4-.02,2.09-1.03,4.5-3.03,7.21-2.01,2.71-4.38,5.05-7.12,7.02-2.73,1.98-5.15,2.96-7.24,2.95Z"/>
      <path class="cls-2" d="M3609.24,899.26l27.06-7.07-.09,14.45-71.73,18.72.08-14.45,13.84-3.68c-1.23-2.73-2.16-5.94-2.76-9.6-.61-3.68-.9-8.23-.86-13.67.07-11.74,2.37-20.72,6.92-26.98,4.54-6.25,10.9-10.61,19.08-13.07,8.18-2.47,17.61-3.67,28.3-3.61l-.11,17.6c-5.87-.04-11.84.56-17.92,1.77-6.09,1.22-11.33,3.07-15.74,5.56l-.49,27.64c-.02,3.77,1.07,6.13,3.26,7.09,2.19.95,5.91.71,11.15-.72ZM3705.04,693.16l.46-75.07,25.13.15-.39,63.13c-.04,6.29-.65,11.89-1.83,16.8-1.18,4.92-3.09,9.05-5.72,12.38-2.65,3.33-6.38,5.82-11.2,7.47l-.02,2.2c9.8,8.43,16.5,16.22,20.12,23.36,3.62,7.15,5.4,15.21,5.35,24.22-.11,18.43-6.58,31.84-19.41,40.25-12.82,8.4-33.48,12.51-61.96,12.34-18.21-.11-32.5-1.67-42.85-4.66-10.34-2.99-17.59-7.9-21.74-14.73-4.16-6.83-6.19-15.91-6.12-27.22.06-9.84,1.26-17.79,3.6-23.85,2.34-6.05,6.77-11.31,13.29-15.78,6.52-4.46,15.87-8.97,28.05-13.49l75.23-27.5ZM3664.69,717.41l-71.26-58.23,16.77-20.32,83.77,68.36-29.28,10.19ZM3611.47,791.84l63.44.39c12.35.07,21.33-2.28,26.9-7.07,5.58-4.77,8.39-10.31,8.43-16.59.03-4.4-1.16-8.9-3.53-13.53-2.38-4.62-5.76-8.62-10.14-11.99l-15.62-12.66-69.26,25.34-.22,36.13Z"/>
      <path class="cls-2" d="M3793.19,816.5l1.2-197.88,25.13.15-1.2,197.88-25.13-.15Z"/>
      <path class="cls-2" d="M3943.32,922.34c-1.85-5.46-3.43-11.86-4.75-19.19-1.32-7.34-2.37-15.04-3.16-23.11-.79-8.07-1.16-15.87-1.11-23.41.1-16.55,1.38-29.73,3.85-39.55,2.47-9.83,6.48-16.93,12.06-21.29,5.57-4.37,12.97-6.51,22.19-6.45l105.23.64.55-90.77c-8.57-2.36-20.18-3.58-34.84-3.67-9-.05-18.53.57-28.59,1.86-10.06,1.3-19.29,3.08-27.67,5.33l-9.6-23.3c8.19-3.71,18.42-6.68,30.68-8.92,12.27-2.23,24.78-3.31,37.56-3.23,14.23.08,25.59,1.47,34.06,4.13,8.46,2.68,14.51,7,18.14,12.99s5.41,14.01,5.35,24.07l-.67,109.93-137.89-.84c-1.71,6.06-3.01,12.59-3.89,19.61-.88,7-1.35,15.33-1.41,24.96-.05,7.12.59,15.08,1.9,23.87,1.31,8.81,3.49,19.39,6.56,31.77l-24.53,4.56ZM3977.31,807.26c-5.82-6.74-9.64-15.61-11.45-26.61-1.83-11.01-2.69-22.58-2.62-34.73.07-11.93,1.45-23.43,4.14-34.52,2.68-11.08,6.04-21.74,10.08-31.98l23.52,7.37c-3.63,10.66-6.62,20.75-8.98,30.25-2.37,9.51-3.58,19.19-3.64,29.03-.05,7.54.28,14.87.97,22,.69,7.13,2.01,13.84,3.97,20.12,1.95,6.3,4.69,11.97,8.22,17.02l-24.2,2.05Z"/>
      <path class="cls-2" d="M4206.24,819.02c-9.01-.05-16.44-1.25-22.28-3.59-5.85-2.34-10.43-6.29-13.75-11.87-3.32-5.56-5.69-13.28-7.09-23.13-1.41-9.85-2.06-22.21-1.98-37.08.1-15.28,1.16-27.79,3.21-37.51,2.05-9.73,5.5-17.35,10.35-22.87,4.85-5.52,11.58-9.35,20.18-11.5s19.5-3.18,32.68-3.11c13.4.08,25.02.89,34.86,2.41,9.83,1.53,20.08,4.1,30.73,7.73l-.68,112.76-11.79,28.19-74.44-.45ZM4252.89,791.04c5.44.03,9.22-1.1,11.32-3.39s3.19-6.36,3.22-12.23l.48-78.52-65.33-.4c-5.65-.03-9.48,1.1-11.48,3.39-2.01,2.3-3.03,6.9-3.07,13.81l-.46,76.95,65.33.4ZM4225.2,903.01l-15.58-19.57c7.78-6.04,15.09-12.9,21.95-20.6,6.85-7.7,12.98-15.73,18.36-24.07,5.39-8.35,9.63-16.64,12.72-24.89,3.08-8.26,4.65-15.83,4.7-22.74l25.12.15c-.05,8.79-1.83,18.3-5.36,28.55-3.52,10.24-8.39,20.47-14.64,30.69-6.24,10.22-13.36,19.86-21.38,28.93-8.01,9.06-16.64,16.91-25.9,23.56ZM4283.05,791.22l50.26.3-.18,28.27-50.25-.3.17-28.27Z"/>
      <path class="cls-2" d="M4396.13,791.91l37.69.23-.17,28.27-113.08-.69.18-28.27,50.25.31,1.04-169.61,25.13.15-1.04,169.61Z"/>
      <path class="cls-2" d="M4421.25,792.07l43.97.27-.17,28.27-43.97-.27.17-28.27ZM4474.6,698.16c-.12,19.89,4.17,36.93,12.88,51.12,8.71,14.19,21.42,24.99,38.13,32.42,16.71,7.44,37,11.23,60.86,11.37l-.17,28.27c-19.27-.11-37.2-3.27-53.82-9.44-16.61-6.17-31.17-14.74-43.66-25.71-12.5-10.96-22.22-23.69-29.14-38.19-6.93-14.48-10.34-30.1-10.24-46.85.05-8.17,2.34-14.54,6.87-19.13,4.53-4.57,12.4-7.72,23.62-9.44,11.21-1.7,26.77-2.5,46.66-2.38,20.1.12,35.69,1.11,46.78,2.95,11.09,1.85,18.87,5.09,23.34,9.73s6.69,11.04,6.64,19.2c-.1,16.75-3.71,32.32-10.81,46.73-7.1,14.41-16.97,27.02-29.6,37.83-12.63,10.81-27.29,19.2-43.97,25.18-16.68,5.97-34.66,8.9-53.92,8.78l.17-28.27c23.87.14,44.21-3.4,61.01-10.62,16.8-7.23,29.64-17.89,38.52-31.97,8.88-14.09,13.38-31.06,13.5-50.95l-103.65-.63ZM4586.47,793.07l43.97.27-.18,28.27-43.97-.27.17-28.27Z"/>
      <path class="cls-2" d="M4693.27,793.72l37.69.24-.17,28.27-113.08-.69.17-28.27,50.26.3,1.03-169.61,25.13.15-1.03,169.61Z"/>
      <path class="cls-2" d="M4793.61,822.6l-75.38-.46.17-28.27,50.26.3,1.03-169.61,25.13.15-1.2,197.88Z"/>
      <path class="cls-2" d="M5071.55,676.66l-.9,147.63-76.64-.47c-13.4-.08-24.34-1.09-32.81-3.02-8.47-1.94-14.89-5.54-19.26-10.8-4.36-5.26-7.35-12.71-8.97-22.36-1.63-9.64-2.38-22.31-2.28-38.02.09-15.71,1-28.36,2.75-37.99,1.73-9.61,4.81-17.03,9.24-22.24,4.43-5.21,10.89-8.74,19.38-10.56,8.49-1.83,19.44-2.71,32.84-2.63l76.64.47ZM5046.25,704.78l-66.91-.4c-7.75-.05-13.3,1.28-16.68,3.98-3.36,2.7-5.07,7.19-5.11,13.48l-.34,55.9c-.04,6.29,1.61,10.8,4.95,13.54,3.33,2.74,8.87,4.14,16.62,4.19l66.91.4.56-91.09ZM4979.43,638.41c-2.09-.02-4.5-.97-7.2-2.88-2.72-1.9-5.05-4.27-7.02-7.12-1.98-2.83-2.95-5.3-2.94-7.39.02-2.31,1.02-4.76,3.03-7.37,2-2.6,4.37-4.89,7.11-6.86,2.72-1.97,5.14-2.95,7.24-2.94,2.31.02,4.76,1.03,7.36,3.03,2.61,2.01,4.89,4.32,6.87,6.95,1.97,2.63,2.95,5.1,2.94,7.41-.02,2.09-1.02,4.5-3.03,7.2-2.01,2.72-4.38,5.05-7.11,7.02-2.74,1.98-5.15,2.96-7.25,2.95ZM5024.66,638.69c-2.09-.02-4.5-.97-7.21-2.88s-5.05-4.27-7.02-7.12c-1.97-2.83-2.95-5.3-2.94-7.39.02-2.31,1.02-4.76,3.03-7.37,2-2.6,4.38-4.89,7.11-6.86,2.73-1.97,5.15-2.95,7.25-2.94,2.31.02,4.76,1.03,7.37,3.03,2.6,2.01,4.89,4.32,6.86,6.95,1.97,2.63,2.95,5.1,2.94,7.41,0,2.09-1.02,4.5-3.03,7.2-2.01,2.72-4.38,5.05-7.11,7.02-2.73,1.98-5.15,2.96-7.25,2.95ZM5069.88,796.02l34.55.21-.18,28.27-34.55-.21.18-28.27Z"/>
      <path class="cls-2" d="M5167.25,796.61l37.69.23-.17,28.27-113.08-.69.18-28.27,50.25.31.73-119.36,25.13.15-.73,119.36ZM5155.65,639.49c-2.1-.02-4.5-.97-7.21-2.88s-5.05-4.27-7.02-7.12c-1.97-2.83-2.95-5.3-2.94-7.39.02-2.31,1.02-4.76,3.03-7.37,2-2.6,4.38-4.89,7.11-6.86,2.73-1.97,5.14-2.95,7.25-2.94,2.3.02,4.75,1.03,7.36,3.03,2.6,2.01,4.89,4.32,6.87,6.95,1.96,2.63,2.95,5.1,2.93,7.41,0,2.09-1.02,4.5-3.02,7.2-2.01,2.72-4.38,5.05-7.12,7.02-2.73,1.98-5.15,2.96-7.24,2.95Z"/>
      <path class="cls-2" d="M5422.3,798.16l-.18,28.27-229.92-1.4.17-28.27,229.93,1.4ZM5397.01,826.28l.72-119.04c-7.32-2.35-18.94-3.57-34.85-3.67-32.03-.2-55.86,8.3-71.46,25.48-15.6,17.17-23.51,43.66-23.72,79.47l-25.13-.15.79-130.66,25.13.15-.35,57.79c4.89-12.94,12.29-23.94,22.19-32.99,9.9-9.05,21.98-15.89,36.25-20.51,14.27-4.63,30.31-6.89,48.1-6.78,12.14.08,21.71,1.29,28.72,3.63,7,2.36,12.01,6.26,15.01,11.71,3.01,5.47,4.48,13.02,4.42,22.65l-.69,113.07-25.12-.15ZM5347.25,640.65c-2.09-.02-4.5-.97-7.21-2.88s-5.05-4.27-7.02-7.11-2.95-5.3-2.94-7.4c.02-2.31,1.02-4.76,3.03-7.36,2-2.61,4.38-4.89,7.11-6.87,2.73-1.97,5.15-2.95,7.25-2.94,2.31.02,4.76,1.03,7.36,3.03,2.61,2.01,4.89,4.32,6.87,6.95,1.97,2.63,2.95,5.1,2.94,7.41-.02,2.09-1.03,4.5-3.03,7.2-2.01,2.72-4.38,5.05-7.11,7.02-2.74,1.98-5.15,2.96-7.25,2.95Z"/>
      <path class="cls-2" d="M5483.38,826.8l1.2-197.88,25.13.15-1.03,169.61,37.69.23-.17,28.27-62.83-.38Z"/>
      <path class="cls-2" d="M5664.81,744.67l23.19,10.19c-4.05,10.45-9.13,20.1-15.26,28.96-6.13,8.87-13.4,16.58-21.81,23.11-8.42,6.55-18.08,11.62-29,15.22-10.91,3.59-23.27,5.35-37.09,5.27l-51.2-.31.18-28.27,58.42.36c9.63.06,18.33-1.57,26.1-4.87,7.77-3.3,14.66-7.66,20.66-13.07,6-5.4,11.16-11.29,15.5-17.66,4.33-6.35,7.77-12.67,10.32-18.94ZM5685.87,743.22l28.9.18-.18,28.27-27.64-.18c-6.28-.04-11.2-1.48-14.73-4.32-3.55-2.85-6.45-7.32-8.71-13.4-4.32-12.38-9.6-22.09-15.84-29.15-6.24-7.05-14.17-12.08-23.78-15.06-9.62-2.99-21.64-4.54-36.1-4.62-3.98-.02-8.12.05-12.41.24s-8.85.47-13.67.86l-3.91-27.67c6.07-.59,11.89-1.03,17.44-1.31,5.55-.28,10.84-.41,15.86-.38,17.6.11,32.34,2.45,44.25,7.03,11.91,4.57,21.92,11.7,30.02,21.39,8.11,9.68,14.95,22.39,20.5,38.12Z"/>
      <path class="cls-2" d="M5786.49,828.64c-9.01-.05-16.44-1.25-22.28-3.58-5.85-2.34-10.43-6.29-13.75-11.87-3.32-5.56-5.69-13.28-7.09-23.13-1.41-9.85-2.06-22.21-1.98-37.08.1-15.28,1.16-27.79,3.21-37.51,2.05-9.73,5.5-17.34,10.35-22.86,4.85-5.53,11.58-9.35,20.18-11.5,8.6-2.15,19.5-3.19,32.69-3.11,13.4.08,25.02.89,34.85,2.41,9.83,1.53,20.08,4.1,30.74,7.72l-.68,112.76-11.8,28.2-74.44-.46ZM5833.16,800.67c5.44.03,9.22-1.1,11.32-3.39,2.11-2.3,3.18-6.37,3.22-12.24l.48-78.52-65.34-.4c-5.65-.04-9.48,1.09-11.48,3.39-2.01,2.29-3.03,6.89-3.07,13.8l-.46,76.95,65.34.4ZM5805.45,912.63l-15.58-19.57c7.78-6.03,15.1-12.9,21.95-20.59,6.85-7.71,12.98-15.74,18.37-24.08,5.39-8.34,9.62-16.64,12.71-24.89,3.09-8.26,4.66-15.84,4.7-22.75l25.13.15c-.05,8.79-1.84,18.31-5.36,28.55-3.52,10.24-8.4,20.47-14.64,30.7-6.24,10.22-13.37,19.86-21.39,28.93-8.01,9.05-16.64,16.9-25.9,23.56Z"/>
      <path class="cls-2" d="M6001.47,911.31l-10.55-22.06c8.19-3.93,14.66-8.39,19.4-13.38,4.74-5,8.13-11.16,10.17-18.47,2.03-7.33,3.08-16.43,3.15-27.31l.9-147.63,25.13.15-.9,147.63c-.08,13.82-1.74,25.8-4.93,35.95-3.2,10.13-8.29,18.84-15.24,26.13-6.96,7.29-16.01,13.62-27.13,19ZM6048.63,801.97l37.7.23-.18,28.27-37.7-.23.18-28.27Z"/>
      <path class="cls-2" d="M6149.15,802.58l37.69.24-.17,28.27-113.08-.69.18-28.27,50.25.3.72-119.36,25.13.15-.72,119.36ZM6136.04,890.46c-2.09,0-4.5-.97-7.21-2.87s-5.05-4.27-7.02-7.11c-1.96-2.85-2.95-5.31-2.93-7.4.02-2.31,1.02-4.76,3.02-7.37,2.01-2.61,4.38-4.9,7.11-6.86,2.73-1.98,5.14-2.95,7.25-2.95,2.3.02,4.76,1.02,7.37,3.03,2.6,2,4.89,4.32,6.86,6.96,1.97,2.63,2.95,5.09,2.94,7.4-.02,2.09-1.02,4.49-3.03,7.21-2.01,2.7-4.38,5.05-7.11,7.02-2.73,1.97-5.15,2.95-7.25,2.94Z"/>
      <path class="cls-2" d="M6249.66,803.2l37.69.23-.17,28.27-113.08-.68.17-28.27,50.26.3.72-119.36,25.13.15-.72,119.36ZM6215.44,645.94c-2.1-.02-4.5-.97-7.21-2.88-2.72-1.9-5.05-4.27-7.02-7.12-1.98-2.83-2.95-5.3-2.94-7.39.02-2.31,1.02-4.76,3.03-7.37,2-2.6,4.37-4.89,7.11-6.86,2.73-1.97,5.14-2.95,7.25-2.94,2.3.02,4.75,1.03,7.36,3.03,2.6,2.01,4.89,4.32,6.87,6.95,1.97,2.63,2.95,5.1,2.94,7.41-.02,2.09-1.03,4.5-3.03,7.2-2.01,2.72-4.38,5.05-7.12,7.02s-5.15,2.95-7.24,2.95ZM6260.67,646.21c-2.1-.02-4.5-.97-7.21-2.88s-5.05-4.27-7.02-7.11-2.95-5.3-2.94-7.4c.02-2.31,1.02-4.76,3.03-7.36,2-2.61,4.38-4.89,7.11-6.87,2.73-1.97,5.14-2.95,7.25-2.94,2.3.02,4.75,1.03,7.36,3.03,2.6,2.01,4.89,4.32,6.87,6.95,1.97,2.63,2.95,5.1,2.94,7.41-.02,2.09-1.03,4.5-3.03,7.2-2.01,2.72-4.38,5.05-7.11,7.02-2.74,1.98-5.15,2.96-7.25,2.95Z"/>
      <path class="cls-2" d="M6405.79,749.18l23.18,10.19c-3.84,10.45-8.65,20.1-14.47,28.97s-12.66,16.58-20.56,23.11c-7.89,6.55-16.93,11.64-27.11,15.24-10.18,3.6-21.76,5.36-34.74,5.28l-57.48-.35.17-28.27,67.85.41c8.37.05,15.97-1.58,22.8-4.89,6.82-3.31,12.82-7.66,17.98-13.08,5.16-5.41,9.59-11.3,13.3-17.67,3.71-6.36,6.73-12.68,9.07-18.94ZM6448.17,804.41l18.84.11-.17,28.27-17.59-.11c-6.29-.04-11.2-1.48-14.74-4.33-3.55-2.85-6.45-7.31-8.71-13.4l-21.33-56.67c-4.95-12.18-10.54-21.78-16.78-28.84-6.24-7.05-14.01-12.12-23.31-15.22-9.3-3.08-21.17-4.68-35.62-4.76-3.98-.02-8.12.05-12.41.24s-8.85.47-13.67.86l-3.91-27.67c6.07-.59,11.89-1.03,17.44-1.31,5.55-.28,10.84-.41,15.87-.38,17.59.11,32.38,2.45,44.4,7.03,12.02,4.57,22.08,11.71,30.18,21.39,8.11,9.69,14.95,22.39,20.5,38.13l21.02,56.67ZM6357.09,646.8c-2.1-.02-4.5-.97-7.21-2.88-2.71-1.9-5.05-4.27-7.02-7.11s-2.95-5.3-2.94-7.4c.02-2.31,1.02-4.76,3.03-7.36,2-2.61,4.38-4.89,7.11-6.87,2.73-1.96,5.14-2.95,7.25-2.94,2.3.02,4.75,1.03,7.36,3.03,2.6,2.01,4.89,4.32,6.87,6.96,1.97,2.63,2.95,5.09,2.94,7.4-.02,2.09-1.03,4.5-3.03,7.21-2.01,2.71-4.38,5.05-7.11,7.02-2.74,1.98-5.16,2.96-7.25,2.95Z"/>
      <path class="cls-2" d="M6578.01,682.69c14.24.08,25.59,1.48,34.06,4.13,8.47,2.68,14.51,7,18.14,12.99,3.63,6,5.42,14.01,5.36,24.07l-.67,109.93-180.61-1.1.17-28.27,155.48.94.56-90.77c-5.02-1.29-10.24-2.21-15.69-2.76-5.44-.56-11.82-.86-19.15-.91-8.38-.05-17.6.52-27.66,1.72-10.05,1.19-19.6,3.02-28.62,5.47l-9.6-23.3c5.88-2.9,12.64-5.21,20.31-6.94,7.65-1.74,15.67-3.05,24.05-3.94s16.35-1.32,23.88-1.27ZM6509.62,822.68c-5.82-6.74-9.64-15.61-11.45-26.61-1.82-11.01-2.69-22.59-2.62-34.74.08-11.93,1.45-23.43,4.14-34.51,2.68-11.08,6.04-21.74,10.08-31.98l23.52,7.37c-3.63,10.66-6.62,20.75-8.98,30.25-2.37,9.51-3.58,19.19-3.64,29.03-.05,7.54.28,14.87.97,21.99.69,7.13,2.01,13.84,3.97,20.13,1.95,6.29,4.69,11.97,8.22,17.01l-24.2,2.05Z"/>
    </g>
  </g>
</svg>